G04 #@! TF.GenerationSoftware,KiCad,Pcbnew,5.1.2-f72e74a~84~ubuntu18.04.1*
G04 #@! TF.CreationDate,2019-06-24T22:58:02+09:00*
G04 #@! TF.ProjectId,dentureRS485,64656e74-7572-4655-9253-3438352e6b69,rev?*
G04 #@! TF.SameCoordinates,Original*
G04 #@! TF.FileFunction,Profile,NP*
%FSLAX46Y46*%
G04 Gerber Fmt 4.6, Leading zero omitted, Abs format (unit mm)*
G04 Created by KiCad (PCBNEW 5.1.2-f72e74a~84~ubuntu18.04.1) date 2019-06-24 22:58:02*
%MOMM*%
%LPD*%
G04 APERTURE LIST*
%ADD10C,0.150000*%
%ADD11C,0.200000*%
G04 APERTURE END LIST*
D10*
X150000000Y-55000000D02*
X150000000Y-57000000D01*
X136500000Y-86000000D02*
X150000000Y-93000000D01*
X136500000Y-64000000D02*
X136500000Y-86000000D01*
X150000000Y-57000000D02*
X136500000Y-64000000D01*
X108000000Y-50000000D02*
X142000000Y-50000000D01*
D11*
X150000000Y-93000000D02*
X150000000Y-95000000D01*
D10*
X100000000Y-95000000D02*
X100000000Y-55000000D01*
X142000000Y-100000000D02*
X108000000Y-100000000D01*
X99400000Y-95000000D02*
X100000000Y-95000000D01*
X99400000Y-97200000D02*
X99400000Y-95000000D01*
X102800000Y-100600000D02*
G75*
G02X99400000Y-97200000I0J3400000D01*
G01*
X108000000Y-100600000D02*
X102800000Y-100600000D01*
X108000000Y-100000000D02*
X108000000Y-100600000D01*
X150600000Y-55000000D02*
X150000000Y-55000000D01*
X150600000Y-52800000D02*
X150600000Y-55000000D01*
X147200000Y-49400000D02*
G75*
G02X150600000Y-52800000I0J-3400000D01*
G01*
X142000000Y-49400000D02*
X147200000Y-49400000D01*
X142000000Y-50000000D02*
X142000000Y-49400000D01*
X99400000Y-55000000D02*
X100000000Y-55000000D01*
X99400000Y-52700000D02*
X99400000Y-55000000D01*
X102700000Y-49400000D02*
G75*
G03X99400000Y-52700000I0J-3300000D01*
G01*
X108000000Y-49400000D02*
X102700000Y-49400000D01*
X108000000Y-50000000D02*
X108000000Y-49400000D01*
X150600000Y-95000000D02*
X150000000Y-95000000D01*
X150600000Y-97300000D02*
X150600000Y-95000000D01*
X147300000Y-100600000D02*
G75*
G03X150600000Y-97300000I0J3300000D01*
G01*
X142000000Y-100600000D02*
X147300000Y-100600000D01*
X142000000Y-100000000D02*
X142000000Y-100600000D01*
M02*
