M48
; DRILL file {KiCad 5.1.2-f72e74a~84~ubuntu18.04.1} date 2019年07月18日 22時32分35秒
; FORMAT={-:-/ absolute / metric / decimal}
; #@! TF.CreationDate,2019-07-18T22:32:35+09:00
; #@! TF.GenerationSoftware,Kicad,Pcbnew,5.1.2-f72e74a~84~ubuntu18.04.1
FMAT,2
METRIC
T1C0.400
T2C0.650
T3C0.890
T4C1.600
T5C2.200
T6C2.400
T7C3.200
%
G90
G05
T1
X105.484Y-55.378
X105.795Y-94.438
X110.159Y-76.503
X111.425Y-73.286
X116.874Y-77.427
X118.532Y-61.673
X125.555Y-71.679
X128.719Y-77.713
X128.799Y-84.413
X132.869Y-62.953
X139.579Y-93.193
X141.779Y-56.883
T2
X117.315Y-64.872
X118.585Y-64.872
X119.855Y-64.872
X121.125Y-64.872
X122.395Y-64.872
X123.665Y-64.872
X124.935Y-64.872
X126.205Y-64.872
X120.499Y-71.813
X121.769Y-71.813
X118.259Y-78.343
X118.259Y-79.613
X118.259Y-80.883
X118.259Y-82.153
T3
X117.93Y-57.099
X118.95Y-59.639
X119.97Y-57.099
X120.99Y-59.639
X122.01Y-57.099
X123.03Y-59.639
X124.05Y-57.099
X125.07Y-59.639
T4
X112.865Y-59.639
X129.115Y-59.639
T5
X107.0Y-53.0
X143.0Y-53.0
X143.0Y-97.0
X107.0Y-97.0
T6
X113.59Y-54.331
X128.39Y-54.419
T7
X103.0Y-53.0
X147.0Y-53.0
X103.0Y-97.0
X147.0Y-97.0
T0
M30
