G04 #@! TF.GenerationSoftware,KiCad,Pcbnew,5.1.2-f72e74a~84~ubuntu18.04.1*
G04 #@! TF.CreationDate,2019-06-24T22:58:02+09:00*
G04 #@! TF.ProjectId,dentureRS485,64656e74-7572-4655-9253-3438352e6b69,rev?*
G04 #@! TF.SameCoordinates,Original*
G04 #@! TF.FileFunction,Soldermask,Bot*
G04 #@! TF.FilePolarity,Negative*
%FSLAX46Y46*%
G04 Gerber Fmt 4.6, Leading zero omitted, Abs format (unit mm)*
G04 Created by KiCad (PCBNEW 5.1.2-f72e74a~84~ubuntu18.04.1) date 2019-06-24 22:58:02*
%MOMM*%
%LPD*%
G04 APERTURE LIST*
%ADD10C,0.100000*%
G04 APERTURE END LIST*
D10*
G36*
X147351163Y-95234587D02*
G01*
X147525041Y-95269173D01*
X147852620Y-95404861D01*
X148147433Y-95601849D01*
X148398151Y-95852567D01*
X148595139Y-96147380D01*
X148730827Y-96474959D01*
X148800000Y-96822716D01*
X148800000Y-97177284D01*
X148730827Y-97525041D01*
X148595139Y-97852620D01*
X148398151Y-98147433D01*
X148147433Y-98398151D01*
X147852620Y-98595139D01*
X147525041Y-98730827D01*
X147351162Y-98765414D01*
X147177286Y-98800000D01*
X146822714Y-98800000D01*
X146648837Y-98765413D01*
X146474959Y-98730827D01*
X146147380Y-98595139D01*
X145852567Y-98398151D01*
X145601849Y-98147433D01*
X145404861Y-97852620D01*
X145269173Y-97525041D01*
X145200000Y-97177284D01*
X145200000Y-96822716D01*
X145269173Y-96474959D01*
X145404861Y-96147380D01*
X145601849Y-95852567D01*
X145852567Y-95601849D01*
X146147380Y-95404861D01*
X146474959Y-95269173D01*
X146648838Y-95234586D01*
X146822714Y-95200000D01*
X147177286Y-95200000D01*
X147351163Y-95234587D01*
X147351163Y-95234587D01*
G37*
G36*
X103351163Y-95234587D02*
G01*
X103525041Y-95269173D01*
X103852620Y-95404861D01*
X104147433Y-95601849D01*
X104398151Y-95852567D01*
X104595139Y-96147380D01*
X104730827Y-96474959D01*
X104800000Y-96822716D01*
X104800000Y-97177284D01*
X104730827Y-97525041D01*
X104595139Y-97852620D01*
X104398151Y-98147433D01*
X104147433Y-98398151D01*
X103852620Y-98595139D01*
X103525041Y-98730827D01*
X103351162Y-98765414D01*
X103177286Y-98800000D01*
X102822714Y-98800000D01*
X102648837Y-98765413D01*
X102474959Y-98730827D01*
X102147380Y-98595139D01*
X101852567Y-98398151D01*
X101601849Y-98147433D01*
X101404861Y-97852620D01*
X101269173Y-97525041D01*
X101200000Y-97177284D01*
X101200000Y-96822716D01*
X101269173Y-96474959D01*
X101404861Y-96147380D01*
X101601849Y-95852567D01*
X101852567Y-95601849D01*
X102147380Y-95404861D01*
X102474959Y-95269173D01*
X102648838Y-95234586D01*
X102822714Y-95200000D01*
X103177286Y-95200000D01*
X103351163Y-95234587D01*
X103351163Y-95234587D01*
G37*
G36*
X143253617Y-95724979D02*
G01*
X143379196Y-95749958D01*
X143615781Y-95847955D01*
X143828702Y-95990224D01*
X144009776Y-96171298D01*
X144152045Y-96384219D01*
X144250042Y-96620804D01*
X144300000Y-96871961D01*
X144300000Y-97128039D01*
X144250042Y-97379196D01*
X144152045Y-97615781D01*
X144009776Y-97828702D01*
X143828702Y-98009776D01*
X143615781Y-98152045D01*
X143379196Y-98250042D01*
X143128040Y-98300000D01*
X142871960Y-98300000D01*
X142746383Y-98275021D01*
X142620804Y-98250042D01*
X142384219Y-98152045D01*
X142171298Y-98009776D01*
X141990224Y-97828702D01*
X141847955Y-97615781D01*
X141749958Y-97379196D01*
X141700000Y-97128039D01*
X141700000Y-96871961D01*
X141749958Y-96620804D01*
X141847955Y-96384219D01*
X141990224Y-96171298D01*
X142171298Y-95990224D01*
X142384219Y-95847955D01*
X142620804Y-95749958D01*
X142746383Y-95724979D01*
X142871960Y-95700000D01*
X143128040Y-95700000D01*
X143253617Y-95724979D01*
X143253617Y-95724979D01*
G37*
G36*
X107253617Y-95724979D02*
G01*
X107379196Y-95749958D01*
X107615781Y-95847955D01*
X107828702Y-95990224D01*
X108009776Y-96171298D01*
X108152045Y-96384219D01*
X108250042Y-96620804D01*
X108300000Y-96871961D01*
X108300000Y-97128039D01*
X108250042Y-97379196D01*
X108152045Y-97615781D01*
X108009776Y-97828702D01*
X107828702Y-98009776D01*
X107615781Y-98152045D01*
X107379196Y-98250042D01*
X107128040Y-98300000D01*
X106871960Y-98300000D01*
X106746383Y-98275021D01*
X106620804Y-98250042D01*
X106384219Y-98152045D01*
X106171298Y-98009776D01*
X105990224Y-97828702D01*
X105847955Y-97615781D01*
X105749958Y-97379196D01*
X105700000Y-97128039D01*
X105700000Y-96871961D01*
X105749958Y-96620804D01*
X105847955Y-96384219D01*
X105990224Y-96171298D01*
X106171298Y-95990224D01*
X106384219Y-95847955D01*
X106620804Y-95749958D01*
X106746383Y-95724979D01*
X106871960Y-95700000D01*
X107128040Y-95700000D01*
X107253617Y-95724979D01*
X107253617Y-95724979D01*
G37*
G36*
X118396224Y-77653328D02*
G01*
X118528175Y-77693355D01*
X118649781Y-77758355D01*
X118756370Y-77845830D01*
X118843845Y-77952419D01*
X118908845Y-78074025D01*
X118948872Y-78205976D01*
X118962387Y-78343200D01*
X118948872Y-78480424D01*
X118908845Y-78612375D01*
X118843845Y-78733981D01*
X118756370Y-78840570D01*
X118706394Y-78881584D01*
X118689076Y-78898902D01*
X118675462Y-78919276D01*
X118666085Y-78941915D01*
X118661305Y-78965948D01*
X118661305Y-78990453D01*
X118666086Y-79014486D01*
X118675463Y-79037125D01*
X118689077Y-79057499D01*
X118706394Y-79074816D01*
X118756370Y-79115830D01*
X118843845Y-79222419D01*
X118908845Y-79344025D01*
X118948872Y-79475976D01*
X118962387Y-79613200D01*
X118948872Y-79750424D01*
X118908845Y-79882375D01*
X118843845Y-80003981D01*
X118756370Y-80110570D01*
X118706394Y-80151584D01*
X118689076Y-80168902D01*
X118675462Y-80189276D01*
X118666085Y-80211915D01*
X118661305Y-80235948D01*
X118661305Y-80260453D01*
X118666086Y-80284486D01*
X118675463Y-80307125D01*
X118689077Y-80327499D01*
X118706394Y-80344816D01*
X118756370Y-80385830D01*
X118843845Y-80492419D01*
X118908845Y-80614025D01*
X118948872Y-80745976D01*
X118962387Y-80883200D01*
X118948872Y-81020424D01*
X118908845Y-81152375D01*
X118908843Y-81152378D01*
X118846359Y-81269277D01*
X118836981Y-81291916D01*
X118832201Y-81315949D01*
X118832201Y-81340453D01*
X118836981Y-81364486D01*
X118846359Y-81387125D01*
X118859973Y-81407500D01*
X118877300Y-81424827D01*
X118897674Y-81438440D01*
X118920313Y-81447818D01*
X118956598Y-81453200D01*
X118959000Y-81453200D01*
X118959000Y-82853200D01*
X117559000Y-82853200D01*
X117559000Y-81453200D01*
X117561402Y-81453200D01*
X117585788Y-81450798D01*
X117609237Y-81443685D01*
X117630848Y-81432134D01*
X117649790Y-81416589D01*
X117665335Y-81397647D01*
X117676886Y-81376036D01*
X117683999Y-81352587D01*
X117686401Y-81328201D01*
X117683999Y-81303815D01*
X117671641Y-81269277D01*
X117609157Y-81152378D01*
X117609155Y-81152375D01*
X117569128Y-81020424D01*
X117555613Y-80883200D01*
X117569128Y-80745976D01*
X117609155Y-80614025D01*
X117674155Y-80492419D01*
X117761630Y-80385830D01*
X117811606Y-80344816D01*
X117828924Y-80327498D01*
X117842538Y-80307124D01*
X117851915Y-80284485D01*
X117856695Y-80260452D01*
X117856695Y-80235947D01*
X117851914Y-80211914D01*
X117842537Y-80189275D01*
X117828923Y-80168901D01*
X117811606Y-80151584D01*
X117761630Y-80110570D01*
X117674155Y-80003981D01*
X117609155Y-79882375D01*
X117569128Y-79750424D01*
X117555613Y-79613200D01*
X117569128Y-79475976D01*
X117609155Y-79344025D01*
X117674155Y-79222419D01*
X117761630Y-79115830D01*
X117811606Y-79074816D01*
X117828924Y-79057498D01*
X117842538Y-79037124D01*
X117851915Y-79014485D01*
X117856695Y-78990452D01*
X117856695Y-78965947D01*
X117851914Y-78941914D01*
X117842537Y-78919275D01*
X117828923Y-78898901D01*
X117811606Y-78881584D01*
X117761630Y-78840570D01*
X117674155Y-78733981D01*
X117609155Y-78612375D01*
X117569128Y-78480424D01*
X117555613Y-78343200D01*
X117569128Y-78205976D01*
X117609155Y-78074025D01*
X117674155Y-77952419D01*
X117761630Y-77845830D01*
X117868219Y-77758355D01*
X117989825Y-77693355D01*
X118121776Y-77653328D01*
X118224610Y-77643200D01*
X118293390Y-77643200D01*
X118396224Y-77653328D01*
X118396224Y-77653328D01*
G37*
G36*
X120636224Y-71123328D02*
G01*
X120768175Y-71163355D01*
X120885080Y-71225842D01*
X120907716Y-71235219D01*
X120931749Y-71239999D01*
X120956253Y-71239999D01*
X120980286Y-71235219D01*
X121002925Y-71225841D01*
X121023300Y-71212227D01*
X121040627Y-71194900D01*
X121054240Y-71174526D01*
X121063618Y-71151887D01*
X121069000Y-71115602D01*
X121069000Y-71113200D01*
X122469000Y-71113200D01*
X122469000Y-72513200D01*
X121069000Y-72513200D01*
X121069000Y-72510798D01*
X121066598Y-72486412D01*
X121059485Y-72462963D01*
X121047934Y-72441352D01*
X121032389Y-72422410D01*
X121013447Y-72406865D01*
X120991836Y-72395314D01*
X120968387Y-72388201D01*
X120944001Y-72385799D01*
X120919615Y-72388201D01*
X120885079Y-72400558D01*
X120768175Y-72463045D01*
X120636224Y-72503072D01*
X120533390Y-72513200D01*
X120464610Y-72513200D01*
X120361776Y-72503072D01*
X120229825Y-72463045D01*
X120108219Y-72398045D01*
X120001630Y-72310570D01*
X119914155Y-72203981D01*
X119849155Y-72082375D01*
X119809128Y-71950424D01*
X119795613Y-71813200D01*
X119809128Y-71675976D01*
X119849155Y-71544025D01*
X119914155Y-71422419D01*
X120001630Y-71315830D01*
X120108219Y-71228355D01*
X120229825Y-71163355D01*
X120361776Y-71123328D01*
X120464610Y-71113200D01*
X120533390Y-71113200D01*
X120636224Y-71123328D01*
X120636224Y-71123328D01*
G37*
G36*
X117452224Y-64181728D02*
G01*
X117584175Y-64221755D01*
X117705781Y-64286755D01*
X117812370Y-64374230D01*
X117853384Y-64424206D01*
X117870702Y-64441524D01*
X117891076Y-64455138D01*
X117913715Y-64464515D01*
X117937748Y-64469295D01*
X117962253Y-64469295D01*
X117986286Y-64464514D01*
X118008925Y-64455137D01*
X118029299Y-64441523D01*
X118046616Y-64424206D01*
X118087630Y-64374230D01*
X118194219Y-64286755D01*
X118315825Y-64221755D01*
X118447776Y-64181728D01*
X118550610Y-64171600D01*
X118619390Y-64171600D01*
X118722224Y-64181728D01*
X118854175Y-64221755D01*
X118975781Y-64286755D01*
X119082370Y-64374230D01*
X119123384Y-64424206D01*
X119140702Y-64441524D01*
X119161076Y-64455138D01*
X119183715Y-64464515D01*
X119207748Y-64469295D01*
X119232253Y-64469295D01*
X119256286Y-64464514D01*
X119278925Y-64455137D01*
X119299299Y-64441523D01*
X119316616Y-64424206D01*
X119357630Y-64374230D01*
X119464219Y-64286755D01*
X119585825Y-64221755D01*
X119717776Y-64181728D01*
X119820610Y-64171600D01*
X119889390Y-64171600D01*
X119992224Y-64181728D01*
X120124175Y-64221755D01*
X120245781Y-64286755D01*
X120352370Y-64374230D01*
X120393384Y-64424206D01*
X120410702Y-64441524D01*
X120431076Y-64455138D01*
X120453715Y-64464515D01*
X120477748Y-64469295D01*
X120502253Y-64469295D01*
X120526286Y-64464514D01*
X120548925Y-64455137D01*
X120569299Y-64441523D01*
X120586616Y-64424206D01*
X120627630Y-64374230D01*
X120734219Y-64286755D01*
X120855825Y-64221755D01*
X120987776Y-64181728D01*
X121090610Y-64171600D01*
X121159390Y-64171600D01*
X121262224Y-64181728D01*
X121394175Y-64221755D01*
X121515781Y-64286755D01*
X121622370Y-64374230D01*
X121663384Y-64424206D01*
X121680702Y-64441524D01*
X121701076Y-64455138D01*
X121723715Y-64464515D01*
X121747748Y-64469295D01*
X121772253Y-64469295D01*
X121796286Y-64464514D01*
X121818925Y-64455137D01*
X121839299Y-64441523D01*
X121856616Y-64424206D01*
X121897630Y-64374230D01*
X122004219Y-64286755D01*
X122125825Y-64221755D01*
X122257776Y-64181728D01*
X122360610Y-64171600D01*
X122429390Y-64171600D01*
X122532224Y-64181728D01*
X122664175Y-64221755D01*
X122785781Y-64286755D01*
X122892370Y-64374230D01*
X122933384Y-64424206D01*
X122950702Y-64441524D01*
X122971076Y-64455138D01*
X122993715Y-64464515D01*
X123017748Y-64469295D01*
X123042253Y-64469295D01*
X123066286Y-64464514D01*
X123088925Y-64455137D01*
X123109299Y-64441523D01*
X123126616Y-64424206D01*
X123167630Y-64374230D01*
X123274219Y-64286755D01*
X123395825Y-64221755D01*
X123527776Y-64181728D01*
X123630610Y-64171600D01*
X123699390Y-64171600D01*
X123802224Y-64181728D01*
X123934175Y-64221755D01*
X124055781Y-64286755D01*
X124162370Y-64374230D01*
X124203384Y-64424206D01*
X124220702Y-64441524D01*
X124241076Y-64455138D01*
X124263715Y-64464515D01*
X124287748Y-64469295D01*
X124312253Y-64469295D01*
X124336286Y-64464514D01*
X124358925Y-64455137D01*
X124379299Y-64441523D01*
X124396616Y-64424206D01*
X124437630Y-64374230D01*
X124544219Y-64286755D01*
X124665825Y-64221755D01*
X124797776Y-64181728D01*
X124900610Y-64171600D01*
X124969390Y-64171600D01*
X125072224Y-64181728D01*
X125204175Y-64221755D01*
X125321080Y-64284242D01*
X125343716Y-64293619D01*
X125367749Y-64298399D01*
X125392253Y-64298399D01*
X125416286Y-64293619D01*
X125438925Y-64284241D01*
X125459300Y-64270627D01*
X125476627Y-64253300D01*
X125490240Y-64232926D01*
X125499618Y-64210287D01*
X125505000Y-64174002D01*
X125505000Y-64171600D01*
X126905000Y-64171600D01*
X126905000Y-65571600D01*
X125505000Y-65571600D01*
X125505000Y-65569198D01*
X125502598Y-65544812D01*
X125495485Y-65521363D01*
X125483934Y-65499752D01*
X125468389Y-65480810D01*
X125449447Y-65465265D01*
X125427836Y-65453714D01*
X125404387Y-65446601D01*
X125380001Y-65444199D01*
X125355615Y-65446601D01*
X125321079Y-65458958D01*
X125204175Y-65521445D01*
X125072224Y-65561472D01*
X124969390Y-65571600D01*
X124900610Y-65571600D01*
X124797776Y-65561472D01*
X124665825Y-65521445D01*
X124544219Y-65456445D01*
X124437630Y-65368970D01*
X124396616Y-65318994D01*
X124379298Y-65301676D01*
X124358924Y-65288062D01*
X124336285Y-65278685D01*
X124312252Y-65273905D01*
X124287747Y-65273905D01*
X124263714Y-65278686D01*
X124241075Y-65288063D01*
X124220701Y-65301677D01*
X124203384Y-65318994D01*
X124162370Y-65368970D01*
X124055781Y-65456445D01*
X123934175Y-65521445D01*
X123802224Y-65561472D01*
X123699390Y-65571600D01*
X123630610Y-65571600D01*
X123527776Y-65561472D01*
X123395825Y-65521445D01*
X123274219Y-65456445D01*
X123167630Y-65368970D01*
X123126616Y-65318994D01*
X123109298Y-65301676D01*
X123088924Y-65288062D01*
X123066285Y-65278685D01*
X123042252Y-65273905D01*
X123017747Y-65273905D01*
X122993714Y-65278686D01*
X122971075Y-65288063D01*
X122950701Y-65301677D01*
X122933384Y-65318994D01*
X122892370Y-65368970D01*
X122785781Y-65456445D01*
X122664175Y-65521445D01*
X122532224Y-65561472D01*
X122429390Y-65571600D01*
X122360610Y-65571600D01*
X122257776Y-65561472D01*
X122125825Y-65521445D01*
X122004219Y-65456445D01*
X121897630Y-65368970D01*
X121856616Y-65318994D01*
X121839298Y-65301676D01*
X121818924Y-65288062D01*
X121796285Y-65278685D01*
X121772252Y-65273905D01*
X121747747Y-65273905D01*
X121723714Y-65278686D01*
X121701075Y-65288063D01*
X121680701Y-65301677D01*
X121663384Y-65318994D01*
X121622370Y-65368970D01*
X121515781Y-65456445D01*
X121394175Y-65521445D01*
X121262224Y-65561472D01*
X121159390Y-65571600D01*
X121090610Y-65571600D01*
X120987776Y-65561472D01*
X120855825Y-65521445D01*
X120734219Y-65456445D01*
X120627630Y-65368970D01*
X120586616Y-65318994D01*
X120569298Y-65301676D01*
X120548924Y-65288062D01*
X120526285Y-65278685D01*
X120502252Y-65273905D01*
X120477747Y-65273905D01*
X120453714Y-65278686D01*
X120431075Y-65288063D01*
X120410701Y-65301677D01*
X120393384Y-65318994D01*
X120352370Y-65368970D01*
X120245781Y-65456445D01*
X120124175Y-65521445D01*
X119992224Y-65561472D01*
X119889390Y-65571600D01*
X119820610Y-65571600D01*
X119717776Y-65561472D01*
X119585825Y-65521445D01*
X119464219Y-65456445D01*
X119357630Y-65368970D01*
X119316616Y-65318994D01*
X119299298Y-65301676D01*
X119278924Y-65288062D01*
X119256285Y-65278685D01*
X119232252Y-65273905D01*
X119207747Y-65273905D01*
X119183714Y-65278686D01*
X119161075Y-65288063D01*
X119140701Y-65301677D01*
X119123384Y-65318994D01*
X119082370Y-65368970D01*
X118975781Y-65456445D01*
X118854175Y-65521445D01*
X118722224Y-65561472D01*
X118619390Y-65571600D01*
X118550610Y-65571600D01*
X118447776Y-65561472D01*
X118315825Y-65521445D01*
X118194219Y-65456445D01*
X118087630Y-65368970D01*
X118046616Y-65318994D01*
X118029298Y-65301676D01*
X118008924Y-65288062D01*
X117986285Y-65278685D01*
X117962252Y-65273905D01*
X117937747Y-65273905D01*
X117913714Y-65278686D01*
X117891075Y-65288063D01*
X117870701Y-65301677D01*
X117853384Y-65318994D01*
X117812370Y-65368970D01*
X117705781Y-65456445D01*
X117584175Y-65521445D01*
X117452224Y-65561472D01*
X117349390Y-65571600D01*
X117280610Y-65571600D01*
X117177776Y-65561472D01*
X117045825Y-65521445D01*
X116924219Y-65456445D01*
X116817630Y-65368970D01*
X116730155Y-65262381D01*
X116665155Y-65140775D01*
X116625128Y-65008824D01*
X116611613Y-64871600D01*
X116625128Y-64734376D01*
X116665155Y-64602425D01*
X116730155Y-64480819D01*
X116817630Y-64374230D01*
X116924219Y-64286755D01*
X117045825Y-64221755D01*
X117177776Y-64181728D01*
X117280610Y-64171600D01*
X117349390Y-64171600D01*
X117452224Y-64181728D01*
X117452224Y-64181728D01*
G37*
G36*
X129465026Y-58485315D02*
G01*
X129683411Y-58575773D01*
X129683413Y-58575774D01*
X129853167Y-58689200D01*
X129879955Y-58707099D01*
X130047101Y-58874245D01*
X130178427Y-59070789D01*
X130268885Y-59289174D01*
X130315000Y-59521009D01*
X130315000Y-59757391D01*
X130268885Y-59989226D01*
X130178427Y-60207611D01*
X130178426Y-60207613D01*
X130047101Y-60404155D01*
X129879955Y-60571301D01*
X129683413Y-60702626D01*
X129683412Y-60702627D01*
X129683411Y-60702627D01*
X129465026Y-60793085D01*
X129233191Y-60839200D01*
X128996809Y-60839200D01*
X128764974Y-60793085D01*
X128546589Y-60702627D01*
X128546588Y-60702627D01*
X128546587Y-60702626D01*
X128350045Y-60571301D01*
X128182899Y-60404155D01*
X128051574Y-60207613D01*
X128051573Y-60207611D01*
X127961115Y-59989226D01*
X127915000Y-59757391D01*
X127915000Y-59521009D01*
X127961115Y-59289174D01*
X128051573Y-59070789D01*
X128182899Y-58874245D01*
X128350045Y-58707099D01*
X128376833Y-58689200D01*
X128546587Y-58575774D01*
X128546589Y-58575773D01*
X128764974Y-58485315D01*
X128996809Y-58439200D01*
X129233191Y-58439200D01*
X129465026Y-58485315D01*
X129465026Y-58485315D01*
G37*
G36*
X113215026Y-58485315D02*
G01*
X113433411Y-58575773D01*
X113433413Y-58575774D01*
X113603167Y-58689200D01*
X113629955Y-58707099D01*
X113797101Y-58874245D01*
X113928427Y-59070789D01*
X114018885Y-59289174D01*
X114065000Y-59521009D01*
X114065000Y-59757391D01*
X114018885Y-59989226D01*
X113928427Y-60207611D01*
X113928426Y-60207613D01*
X113797101Y-60404155D01*
X113629955Y-60571301D01*
X113433413Y-60702626D01*
X113433412Y-60702627D01*
X113433411Y-60702627D01*
X113215026Y-60793085D01*
X112983191Y-60839200D01*
X112746809Y-60839200D01*
X112514974Y-60793085D01*
X112296589Y-60702627D01*
X112296588Y-60702627D01*
X112296587Y-60702626D01*
X112100045Y-60571301D01*
X111932899Y-60404155D01*
X111801574Y-60207613D01*
X111801573Y-60207611D01*
X111711115Y-59989226D01*
X111665000Y-59757391D01*
X111665000Y-59521009D01*
X111711115Y-59289174D01*
X111801573Y-59070789D01*
X111932899Y-58874245D01*
X112100045Y-58707099D01*
X112126833Y-58689200D01*
X112296587Y-58575774D01*
X112296589Y-58575773D01*
X112514974Y-58485315D01*
X112746809Y-58439200D01*
X112983191Y-58439200D01*
X113215026Y-58485315D01*
X113215026Y-58485315D01*
G37*
G36*
X119133551Y-58707099D02*
G01*
X119227105Y-58725708D01*
X119399994Y-58797321D01*
X119555590Y-58901287D01*
X119687913Y-59033610D01*
X119791879Y-59189206D01*
X119833287Y-59289174D01*
X119854516Y-59340426D01*
X119866067Y-59362037D01*
X119881613Y-59380979D01*
X119900554Y-59396524D01*
X119922165Y-59408075D01*
X119945614Y-59415188D01*
X119970000Y-59417590D01*
X119994386Y-59415188D01*
X120017835Y-59408075D01*
X120039446Y-59396524D01*
X120058388Y-59380978D01*
X120073933Y-59362037D01*
X120085484Y-59340426D01*
X120106713Y-59289174D01*
X120148121Y-59189206D01*
X120252087Y-59033610D01*
X120384410Y-58901287D01*
X120540006Y-58797321D01*
X120712895Y-58725708D01*
X120806449Y-58707099D01*
X120896432Y-58689200D01*
X121083568Y-58689200D01*
X121173551Y-58707099D01*
X121267105Y-58725708D01*
X121439994Y-58797321D01*
X121595590Y-58901287D01*
X121727913Y-59033610D01*
X121831879Y-59189206D01*
X121873287Y-59289174D01*
X121894516Y-59340426D01*
X121906067Y-59362037D01*
X121921613Y-59380979D01*
X121940554Y-59396524D01*
X121962165Y-59408075D01*
X121985614Y-59415188D01*
X122010000Y-59417590D01*
X122034386Y-59415188D01*
X122057835Y-59408075D01*
X122079446Y-59396524D01*
X122098388Y-59380978D01*
X122113933Y-59362037D01*
X122125484Y-59340426D01*
X122146713Y-59289174D01*
X122188121Y-59189206D01*
X122292087Y-59033610D01*
X122424410Y-58901287D01*
X122580006Y-58797321D01*
X122752895Y-58725708D01*
X122846449Y-58707099D01*
X122936432Y-58689200D01*
X123123568Y-58689200D01*
X123213551Y-58707099D01*
X123307105Y-58725708D01*
X123479994Y-58797321D01*
X123635590Y-58901287D01*
X123767913Y-59033610D01*
X123871879Y-59189206D01*
X123879521Y-59207656D01*
X123891069Y-59229258D01*
X123906614Y-59248200D01*
X123925556Y-59263745D01*
X123947167Y-59275296D01*
X123970616Y-59282409D01*
X123995002Y-59284811D01*
X124019388Y-59282409D01*
X124042837Y-59275296D01*
X124064447Y-59263744D01*
X124083389Y-59248199D01*
X124098934Y-59229257D01*
X124110485Y-59207646D01*
X124117598Y-59184197D01*
X124120000Y-59159812D01*
X124120000Y-58689200D01*
X126020000Y-58689200D01*
X126020000Y-60589200D01*
X124120000Y-60589200D01*
X124120000Y-60118588D01*
X124117598Y-60094202D01*
X124110485Y-60070753D01*
X124098934Y-60049142D01*
X124083389Y-60030200D01*
X124064447Y-60014655D01*
X124042836Y-60003104D01*
X124019387Y-59995991D01*
X123995001Y-59993589D01*
X123970615Y-59995991D01*
X123947166Y-60003104D01*
X123925555Y-60014655D01*
X123906613Y-60030200D01*
X123891068Y-60049142D01*
X123879521Y-60070744D01*
X123871879Y-60089194D01*
X123767913Y-60244790D01*
X123635590Y-60377113D01*
X123479994Y-60481079D01*
X123307105Y-60552692D01*
X123215336Y-60570946D01*
X123123568Y-60589200D01*
X122936432Y-60589200D01*
X122844664Y-60570946D01*
X122752895Y-60552692D01*
X122580006Y-60481079D01*
X122424410Y-60377113D01*
X122292087Y-60244790D01*
X122188121Y-60089194D01*
X122125482Y-59937971D01*
X122113933Y-59916363D01*
X122098387Y-59897421D01*
X122079446Y-59881876D01*
X122057835Y-59870325D01*
X122034386Y-59863212D01*
X122010000Y-59860810D01*
X121985614Y-59863212D01*
X121962165Y-59870325D01*
X121940554Y-59881876D01*
X121921612Y-59897422D01*
X121906067Y-59916363D01*
X121894518Y-59937971D01*
X121831879Y-60089194D01*
X121727913Y-60244790D01*
X121595590Y-60377113D01*
X121439994Y-60481079D01*
X121267105Y-60552692D01*
X121175336Y-60570946D01*
X121083568Y-60589200D01*
X120896432Y-60589200D01*
X120804664Y-60570946D01*
X120712895Y-60552692D01*
X120540006Y-60481079D01*
X120384410Y-60377113D01*
X120252087Y-60244790D01*
X120148121Y-60089194D01*
X120085482Y-59937971D01*
X120073933Y-59916363D01*
X120058387Y-59897421D01*
X120039446Y-59881876D01*
X120017835Y-59870325D01*
X119994386Y-59863212D01*
X119970000Y-59860810D01*
X119945614Y-59863212D01*
X119922165Y-59870325D01*
X119900554Y-59881876D01*
X119881612Y-59897422D01*
X119866067Y-59916363D01*
X119854518Y-59937971D01*
X119791879Y-60089194D01*
X119687913Y-60244790D01*
X119555590Y-60377113D01*
X119399994Y-60481079D01*
X119227105Y-60552692D01*
X119135336Y-60570946D01*
X119043568Y-60589200D01*
X118856432Y-60589200D01*
X118764664Y-60570946D01*
X118672895Y-60552692D01*
X118500006Y-60481079D01*
X118344410Y-60377113D01*
X118212087Y-60244790D01*
X118108121Y-60089194D01*
X118036508Y-59916305D01*
X118000000Y-59732767D01*
X118000000Y-59545633D01*
X118036508Y-59362095D01*
X118108121Y-59189206D01*
X118212087Y-59033610D01*
X118344410Y-58901287D01*
X118500006Y-58797321D01*
X118672895Y-58725708D01*
X118766449Y-58707099D01*
X118856432Y-58689200D01*
X119043568Y-58689200D01*
X119133551Y-58707099D01*
X119133551Y-58707099D01*
G37*
G36*
X118115336Y-56167454D02*
G01*
X118207105Y-56185708D01*
X118379994Y-56257321D01*
X118535590Y-56361287D01*
X118667913Y-56493610D01*
X118771879Y-56649206D01*
X118834516Y-56800426D01*
X118846067Y-56822037D01*
X118861613Y-56840979D01*
X118880554Y-56856524D01*
X118902165Y-56868075D01*
X118925614Y-56875188D01*
X118950000Y-56877590D01*
X118974386Y-56875188D01*
X118997835Y-56868075D01*
X119019446Y-56856524D01*
X119038388Y-56840978D01*
X119053933Y-56822037D01*
X119065484Y-56800426D01*
X119128121Y-56649206D01*
X119232087Y-56493610D01*
X119364410Y-56361287D01*
X119520006Y-56257321D01*
X119692895Y-56185708D01*
X119784664Y-56167454D01*
X119876432Y-56149200D01*
X120063568Y-56149200D01*
X120155336Y-56167454D01*
X120247105Y-56185708D01*
X120419994Y-56257321D01*
X120575590Y-56361287D01*
X120707913Y-56493610D01*
X120811879Y-56649206D01*
X120874516Y-56800426D01*
X120886067Y-56822037D01*
X120901613Y-56840979D01*
X120920554Y-56856524D01*
X120942165Y-56868075D01*
X120965614Y-56875188D01*
X120990000Y-56877590D01*
X121014386Y-56875188D01*
X121037835Y-56868075D01*
X121059446Y-56856524D01*
X121078388Y-56840978D01*
X121093933Y-56822037D01*
X121105484Y-56800426D01*
X121168121Y-56649206D01*
X121272087Y-56493610D01*
X121404410Y-56361287D01*
X121560006Y-56257321D01*
X121732895Y-56185708D01*
X121824664Y-56167454D01*
X121916432Y-56149200D01*
X122103568Y-56149200D01*
X122195336Y-56167454D01*
X122287105Y-56185708D01*
X122459994Y-56257321D01*
X122615590Y-56361287D01*
X122747913Y-56493610D01*
X122851879Y-56649206D01*
X122914516Y-56800426D01*
X122926067Y-56822037D01*
X122941613Y-56840979D01*
X122960554Y-56856524D01*
X122982165Y-56868075D01*
X123005614Y-56875188D01*
X123030000Y-56877590D01*
X123054386Y-56875188D01*
X123077835Y-56868075D01*
X123099446Y-56856524D01*
X123118388Y-56840978D01*
X123133933Y-56822037D01*
X123145484Y-56800426D01*
X123208121Y-56649206D01*
X123312087Y-56493610D01*
X123444410Y-56361287D01*
X123600006Y-56257321D01*
X123772895Y-56185708D01*
X123864664Y-56167454D01*
X123956432Y-56149200D01*
X124143568Y-56149200D01*
X124235336Y-56167454D01*
X124327105Y-56185708D01*
X124499994Y-56257321D01*
X124655590Y-56361287D01*
X124787913Y-56493610D01*
X124891879Y-56649206D01*
X124963492Y-56822095D01*
X125000000Y-57005633D01*
X125000000Y-57192767D01*
X124963492Y-57376305D01*
X124891879Y-57549194D01*
X124787913Y-57704790D01*
X124655590Y-57837113D01*
X124499994Y-57941079D01*
X124327105Y-58012692D01*
X124235336Y-58030946D01*
X124143568Y-58049200D01*
X123956432Y-58049200D01*
X123864664Y-58030946D01*
X123772895Y-58012692D01*
X123600006Y-57941079D01*
X123444410Y-57837113D01*
X123312087Y-57704790D01*
X123208121Y-57549194D01*
X123145482Y-57397971D01*
X123133933Y-57376363D01*
X123118387Y-57357421D01*
X123099446Y-57341876D01*
X123077835Y-57330325D01*
X123054386Y-57323212D01*
X123030000Y-57320810D01*
X123005614Y-57323212D01*
X122982165Y-57330325D01*
X122960554Y-57341876D01*
X122941612Y-57357422D01*
X122926067Y-57376363D01*
X122914518Y-57397971D01*
X122851879Y-57549194D01*
X122747913Y-57704790D01*
X122615590Y-57837113D01*
X122459994Y-57941079D01*
X122287105Y-58012692D01*
X122195336Y-58030946D01*
X122103568Y-58049200D01*
X121916432Y-58049200D01*
X121824664Y-58030946D01*
X121732895Y-58012692D01*
X121560006Y-57941079D01*
X121404410Y-57837113D01*
X121272087Y-57704790D01*
X121168121Y-57549194D01*
X121105482Y-57397971D01*
X121093933Y-57376363D01*
X121078387Y-57357421D01*
X121059446Y-57341876D01*
X121037835Y-57330325D01*
X121014386Y-57323212D01*
X120990000Y-57320810D01*
X120965614Y-57323212D01*
X120942165Y-57330325D01*
X120920554Y-57341876D01*
X120901612Y-57357422D01*
X120886067Y-57376363D01*
X120874518Y-57397971D01*
X120811879Y-57549194D01*
X120707913Y-57704790D01*
X120575590Y-57837113D01*
X120419994Y-57941079D01*
X120247105Y-58012692D01*
X120155336Y-58030946D01*
X120063568Y-58049200D01*
X119876432Y-58049200D01*
X119784664Y-58030946D01*
X119692895Y-58012692D01*
X119520006Y-57941079D01*
X119364410Y-57837113D01*
X119232087Y-57704790D01*
X119128121Y-57549194D01*
X119065482Y-57397971D01*
X119053933Y-57376363D01*
X119038387Y-57357421D01*
X119019446Y-57341876D01*
X118997835Y-57330325D01*
X118974386Y-57323212D01*
X118950000Y-57320810D01*
X118925614Y-57323212D01*
X118902165Y-57330325D01*
X118880554Y-57341876D01*
X118861612Y-57357422D01*
X118846067Y-57376363D01*
X118834518Y-57397971D01*
X118771879Y-57549194D01*
X118667913Y-57704790D01*
X118535590Y-57837113D01*
X118379994Y-57941079D01*
X118207105Y-58012692D01*
X118115336Y-58030946D01*
X118023568Y-58049200D01*
X117836432Y-58049200D01*
X117744664Y-58030946D01*
X117652895Y-58012692D01*
X117480006Y-57941079D01*
X117324410Y-57837113D01*
X117192087Y-57704790D01*
X117088121Y-57549194D01*
X117016508Y-57376305D01*
X116980000Y-57192767D01*
X116980000Y-57005633D01*
X117016508Y-56822095D01*
X117088121Y-56649206D01*
X117192087Y-56493610D01*
X117324410Y-56361287D01*
X117480006Y-56257321D01*
X117652895Y-56185708D01*
X117744664Y-56167454D01*
X117836432Y-56149200D01*
X118023568Y-56149200D01*
X118115336Y-56167454D01*
X118115336Y-56167454D01*
G37*
G36*
X128663126Y-53046400D02*
G01*
X128798365Y-53073301D01*
X128978523Y-53147925D01*
X129049403Y-53177284D01*
X129053149Y-53178836D01*
X129282448Y-53332049D01*
X129477451Y-53527052D01*
X129571264Y-53667453D01*
X129630665Y-53756353D01*
X129736199Y-54011136D01*
X129783721Y-54250042D01*
X129790000Y-54281612D01*
X129790000Y-54557388D01*
X129736199Y-54827865D01*
X129630664Y-55082649D01*
X129477451Y-55311948D01*
X129282448Y-55506951D01*
X129053149Y-55660164D01*
X128798365Y-55765699D01*
X128663127Y-55792599D01*
X128527889Y-55819500D01*
X128252111Y-55819500D01*
X128116873Y-55792599D01*
X127981635Y-55765699D01*
X127726851Y-55660164D01*
X127497552Y-55506951D01*
X127302549Y-55311948D01*
X127149336Y-55082649D01*
X127043801Y-54827865D01*
X126990000Y-54557388D01*
X126990000Y-54281612D01*
X126996280Y-54250042D01*
X127043801Y-54011136D01*
X127149335Y-53756353D01*
X127208736Y-53667453D01*
X127302549Y-53527052D01*
X127497552Y-53332049D01*
X127726851Y-53178836D01*
X127730598Y-53177284D01*
X127801477Y-53147925D01*
X127981635Y-53073301D01*
X128116874Y-53046400D01*
X128252111Y-53019500D01*
X128527889Y-53019500D01*
X128663126Y-53046400D01*
X128663126Y-53046400D01*
G37*
G36*
X113863126Y-52957500D02*
G01*
X113998365Y-52984401D01*
X114253149Y-53089936D01*
X114482448Y-53243149D01*
X114677451Y-53438152D01*
X114830664Y-53667451D01*
X114907364Y-53852620D01*
X114936199Y-53922236D01*
X114980994Y-54147433D01*
X114990000Y-54192712D01*
X114990000Y-54468488D01*
X114936199Y-54738965D01*
X114830664Y-54993749D01*
X114677451Y-55223048D01*
X114482448Y-55418051D01*
X114253149Y-55571264D01*
X113998365Y-55676799D01*
X113863126Y-55703700D01*
X113727889Y-55730600D01*
X113452111Y-55730600D01*
X113316874Y-55703700D01*
X113181635Y-55676799D01*
X112926851Y-55571264D01*
X112697552Y-55418051D01*
X112502549Y-55223048D01*
X112349336Y-54993749D01*
X112243801Y-54738965D01*
X112190000Y-54468488D01*
X112190000Y-54192712D01*
X112199007Y-54147433D01*
X112243801Y-53922236D01*
X112272637Y-53852620D01*
X112349336Y-53667451D01*
X112502549Y-53438152D01*
X112697552Y-53243149D01*
X112926851Y-53089936D01*
X113181635Y-52984401D01*
X113316874Y-52957500D01*
X113452111Y-52930600D01*
X113727889Y-52930600D01*
X113863126Y-52957500D01*
X113863126Y-52957500D01*
G37*
G36*
X103351163Y-51234587D02*
G01*
X103525041Y-51269173D01*
X103852620Y-51404861D01*
X104147433Y-51601849D01*
X104398151Y-51852567D01*
X104595139Y-52147380D01*
X104730827Y-52474959D01*
X104765414Y-52648838D01*
X104800000Y-52822714D01*
X104800000Y-53177286D01*
X104786899Y-53243148D01*
X104730827Y-53525041D01*
X104595139Y-53852620D01*
X104398151Y-54147433D01*
X104147433Y-54398151D01*
X103852620Y-54595139D01*
X103525041Y-54730827D01*
X103351162Y-54765414D01*
X103177286Y-54800000D01*
X102822714Y-54800000D01*
X102648838Y-54765414D01*
X102474959Y-54730827D01*
X102147380Y-54595139D01*
X101852567Y-54398151D01*
X101601849Y-54147433D01*
X101404861Y-53852620D01*
X101269173Y-53525041D01*
X101213101Y-53243148D01*
X101200000Y-53177286D01*
X101200000Y-52822714D01*
X101234586Y-52648838D01*
X101269173Y-52474959D01*
X101404861Y-52147380D01*
X101601849Y-51852567D01*
X101852567Y-51601849D01*
X102147380Y-51404861D01*
X102474959Y-51269173D01*
X102648837Y-51234587D01*
X102822714Y-51200000D01*
X103177286Y-51200000D01*
X103351163Y-51234587D01*
X103351163Y-51234587D01*
G37*
G36*
X147351163Y-51234587D02*
G01*
X147525041Y-51269173D01*
X147852620Y-51404861D01*
X148147433Y-51601849D01*
X148398151Y-51852567D01*
X148595139Y-52147380D01*
X148730827Y-52474959D01*
X148765414Y-52648838D01*
X148800000Y-52822714D01*
X148800000Y-53177286D01*
X148786899Y-53243148D01*
X148730827Y-53525041D01*
X148595139Y-53852620D01*
X148398151Y-54147433D01*
X148147433Y-54398151D01*
X147852620Y-54595139D01*
X147525041Y-54730827D01*
X147351162Y-54765414D01*
X147177286Y-54800000D01*
X146822714Y-54800000D01*
X146648838Y-54765414D01*
X146474959Y-54730827D01*
X146147380Y-54595139D01*
X145852567Y-54398151D01*
X145601849Y-54147433D01*
X145404861Y-53852620D01*
X145269173Y-53525041D01*
X145213101Y-53243148D01*
X145200000Y-53177286D01*
X145200000Y-52822714D01*
X145234586Y-52648838D01*
X145269173Y-52474959D01*
X145404861Y-52147380D01*
X145601849Y-51852567D01*
X145852567Y-51601849D01*
X146147380Y-51404861D01*
X146474959Y-51269173D01*
X146648837Y-51234587D01*
X146822714Y-51200000D01*
X147177286Y-51200000D01*
X147351163Y-51234587D01*
X147351163Y-51234587D01*
G37*
G36*
X143379196Y-51749958D02*
G01*
X143615781Y-51847955D01*
X143828702Y-51990224D01*
X144009776Y-52171298D01*
X144152045Y-52384219D01*
X144250042Y-52620804D01*
X144300000Y-52871961D01*
X144300000Y-53128039D01*
X144250042Y-53379196D01*
X144152045Y-53615781D01*
X144009776Y-53828702D01*
X143828702Y-54009776D01*
X143615781Y-54152045D01*
X143379196Y-54250042D01*
X143128040Y-54300000D01*
X142871960Y-54300000D01*
X142620804Y-54250042D01*
X142384219Y-54152045D01*
X142171298Y-54009776D01*
X141990224Y-53828702D01*
X141847955Y-53615781D01*
X141749958Y-53379196D01*
X141700000Y-53128039D01*
X141700000Y-52871961D01*
X141749958Y-52620804D01*
X141847955Y-52384219D01*
X141990224Y-52171298D01*
X142171298Y-51990224D01*
X142384219Y-51847955D01*
X142620804Y-51749958D01*
X142871960Y-51700000D01*
X143128040Y-51700000D01*
X143379196Y-51749958D01*
X143379196Y-51749958D01*
G37*
G36*
X107379196Y-51749958D02*
G01*
X107615781Y-51847955D01*
X107828702Y-51990224D01*
X108009776Y-52171298D01*
X108152045Y-52384219D01*
X108250042Y-52620804D01*
X108300000Y-52871961D01*
X108300000Y-53128039D01*
X108250042Y-53379196D01*
X108152045Y-53615781D01*
X108009776Y-53828702D01*
X107828702Y-54009776D01*
X107615781Y-54152045D01*
X107379196Y-54250042D01*
X107128040Y-54300000D01*
X106871960Y-54300000D01*
X106620804Y-54250042D01*
X106384219Y-54152045D01*
X106171298Y-54009776D01*
X105990224Y-53828702D01*
X105847955Y-53615781D01*
X105749958Y-53379196D01*
X105700000Y-53128039D01*
X105700000Y-52871961D01*
X105749958Y-52620804D01*
X105847955Y-52384219D01*
X105990224Y-52171298D01*
X106171298Y-51990224D01*
X106384219Y-51847955D01*
X106620804Y-51749958D01*
X106871960Y-51700000D01*
X107128040Y-51700000D01*
X107379196Y-51749958D01*
X107379196Y-51749958D01*
G37*
M02*
