G04 #@! TF.GenerationSoftware,KiCad,Pcbnew,5.1.2-f72e74a~84~ubuntu18.04.1*
G04 #@! TF.CreationDate,2019-06-24T22:58:02+09:00*
G04 #@! TF.ProjectId,dentureRS485,64656e74-7572-4655-9253-3438352e6b69,rev?*
G04 #@! TF.SameCoordinates,Original*
G04 #@! TF.FileFunction,Copper,L1,Top*
G04 #@! TF.FilePolarity,Positive*
%FSLAX46Y46*%
G04 Gerber Fmt 4.6, Leading zero omitted, Abs format (unit mm)*
G04 Created by KiCad (PCBNEW 5.1.2-f72e74a~84~ubuntu18.04.1) date 2019-06-24 22:58:02*
%MOMM*%
%LPD*%
G04 APERTURE LIST*
%ADD10C,0.500000*%
%ADD11C,0.100000*%
%ADD12R,1.000000X1.000000*%
%ADD13O,1.000000X1.000000*%
%ADD14R,1.500000X1.500000*%
%ADD15C,1.500000*%
%ADD16C,2.000000*%
%ADD17R,1.550000X0.600000*%
%ADD18C,0.875000*%
%ADD19O,1.400000X0.700000*%
%ADD20C,0.800000*%
%ADD21C,0.250000*%
%ADD22C,0.254000*%
G04 APERTURE END LIST*
D10*
X122959000Y-76233200D03*
D11*
G36*
X123459000Y-75933200D02*
G01*
X123859000Y-75933200D01*
X123859000Y-76533200D01*
X123459000Y-76533200D01*
X123459000Y-76983200D01*
X122959000Y-76983200D01*
X122959000Y-76982598D01*
X122934466Y-76982598D01*
X122885635Y-76977788D01*
X122837510Y-76968216D01*
X122790555Y-76953972D01*
X122745222Y-76935195D01*
X122701949Y-76912064D01*
X122661150Y-76884804D01*
X122623221Y-76853676D01*
X122588524Y-76818979D01*
X122557396Y-76781050D01*
X122530136Y-76740251D01*
X122507005Y-76696978D01*
X122488228Y-76651645D01*
X122473984Y-76604690D01*
X122464412Y-76556565D01*
X122459602Y-76507734D01*
X122459602Y-76483200D01*
X122459000Y-76483200D01*
X122459000Y-75983200D01*
X122459602Y-75983200D01*
X122459602Y-75958666D01*
X122464412Y-75909835D01*
X122473984Y-75861710D01*
X122488228Y-75814755D01*
X122507005Y-75769422D01*
X122530136Y-75726149D01*
X122557396Y-75685350D01*
X122588524Y-75647421D01*
X122623221Y-75612724D01*
X122661150Y-75581596D01*
X122701949Y-75554336D01*
X122745222Y-75531205D01*
X122790555Y-75512428D01*
X122837510Y-75498184D01*
X122885635Y-75488612D01*
X122934466Y-75483802D01*
X122959000Y-75483802D01*
X122959000Y-75483200D01*
X123459000Y-75483200D01*
X123459000Y-75933200D01*
X123459000Y-75933200D01*
G37*
D10*
X124259000Y-76233200D03*
D11*
G36*
X124259000Y-75483802D02*
G01*
X124283534Y-75483802D01*
X124332365Y-75488612D01*
X124380490Y-75498184D01*
X124427445Y-75512428D01*
X124472778Y-75531205D01*
X124516051Y-75554336D01*
X124556850Y-75581596D01*
X124594779Y-75612724D01*
X124629476Y-75647421D01*
X124660604Y-75685350D01*
X124687864Y-75726149D01*
X124710995Y-75769422D01*
X124729772Y-75814755D01*
X124744016Y-75861710D01*
X124753588Y-75909835D01*
X124758398Y-75958666D01*
X124758398Y-75983200D01*
X124759000Y-75983200D01*
X124759000Y-76483200D01*
X124758398Y-76483200D01*
X124758398Y-76507734D01*
X124753588Y-76556565D01*
X124744016Y-76604690D01*
X124729772Y-76651645D01*
X124710995Y-76696978D01*
X124687864Y-76740251D01*
X124660604Y-76781050D01*
X124629476Y-76818979D01*
X124594779Y-76853676D01*
X124556850Y-76884804D01*
X124516051Y-76912064D01*
X124472778Y-76935195D01*
X124427445Y-76953972D01*
X124380490Y-76968216D01*
X124332365Y-76977788D01*
X124283534Y-76982598D01*
X124259000Y-76982598D01*
X124259000Y-76983200D01*
X123759000Y-76983200D01*
X123759000Y-75483200D01*
X124259000Y-75483200D01*
X124259000Y-75483802D01*
X124259000Y-75483802D01*
G37*
D12*
X118259000Y-82153200D03*
D13*
X118259000Y-80883200D03*
X118259000Y-79613200D03*
X118259000Y-78343200D03*
D12*
X126205000Y-64871600D03*
D13*
X124935000Y-64871600D03*
X123665000Y-64871600D03*
X122395000Y-64871600D03*
X121125000Y-64871600D03*
X119855000Y-64871600D03*
X118585000Y-64871600D03*
X117315000Y-64871600D03*
D14*
X125070000Y-59639200D03*
D15*
X123030000Y-59639200D03*
X120990000Y-59639200D03*
X118950000Y-59639200D03*
X124050000Y-57099200D03*
X122010000Y-57099200D03*
X119970000Y-57099200D03*
X117930000Y-57099200D03*
D16*
X129115000Y-59639200D03*
X112865000Y-59639200D03*
D17*
X114757000Y-82157900D03*
X114757000Y-80887900D03*
X114757000Y-79617900D03*
X114757000Y-78347900D03*
X109357000Y-78347900D03*
X109357000Y-79617900D03*
X109357000Y-80887900D03*
X109357000Y-82157900D03*
D11*
G36*
X105956691Y-82291753D02*
G01*
X105977926Y-82294903D01*
X105998750Y-82300119D01*
X106018962Y-82307351D01*
X106038368Y-82316530D01*
X106056781Y-82327566D01*
X106074024Y-82340354D01*
X106089930Y-82354770D01*
X106104346Y-82370676D01*
X106117134Y-82387919D01*
X106128170Y-82406332D01*
X106137349Y-82425738D01*
X106144581Y-82445950D01*
X106149797Y-82466774D01*
X106152947Y-82488009D01*
X106154000Y-82509450D01*
X106154000Y-82946950D01*
X106152947Y-82968391D01*
X106149797Y-82989626D01*
X106144581Y-83010450D01*
X106137349Y-83030662D01*
X106128170Y-83050068D01*
X106117134Y-83068481D01*
X106104346Y-83085724D01*
X106089930Y-83101630D01*
X106074024Y-83116046D01*
X106056781Y-83128834D01*
X106038368Y-83139870D01*
X106018962Y-83149049D01*
X105998750Y-83156281D01*
X105977926Y-83161497D01*
X105956691Y-83164647D01*
X105935250Y-83165700D01*
X105422750Y-83165700D01*
X105401309Y-83164647D01*
X105380074Y-83161497D01*
X105359250Y-83156281D01*
X105339038Y-83149049D01*
X105319632Y-83139870D01*
X105301219Y-83128834D01*
X105283976Y-83116046D01*
X105268070Y-83101630D01*
X105253654Y-83085724D01*
X105240866Y-83068481D01*
X105229830Y-83050068D01*
X105220651Y-83030662D01*
X105213419Y-83010450D01*
X105208203Y-82989626D01*
X105205053Y-82968391D01*
X105204000Y-82946950D01*
X105204000Y-82509450D01*
X105205053Y-82488009D01*
X105208203Y-82466774D01*
X105213419Y-82445950D01*
X105220651Y-82425738D01*
X105229830Y-82406332D01*
X105240866Y-82387919D01*
X105253654Y-82370676D01*
X105268070Y-82354770D01*
X105283976Y-82340354D01*
X105301219Y-82327566D01*
X105319632Y-82316530D01*
X105339038Y-82307351D01*
X105359250Y-82300119D01*
X105380074Y-82294903D01*
X105401309Y-82291753D01*
X105422750Y-82290700D01*
X105935250Y-82290700D01*
X105956691Y-82291753D01*
X105956691Y-82291753D01*
G37*
D18*
X105679000Y-82728200D03*
D11*
G36*
X105956691Y-80716753D02*
G01*
X105977926Y-80719903D01*
X105998750Y-80725119D01*
X106018962Y-80732351D01*
X106038368Y-80741530D01*
X106056781Y-80752566D01*
X106074024Y-80765354D01*
X106089930Y-80779770D01*
X106104346Y-80795676D01*
X106117134Y-80812919D01*
X106128170Y-80831332D01*
X106137349Y-80850738D01*
X106144581Y-80870950D01*
X106149797Y-80891774D01*
X106152947Y-80913009D01*
X106154000Y-80934450D01*
X106154000Y-81371950D01*
X106152947Y-81393391D01*
X106149797Y-81414626D01*
X106144581Y-81435450D01*
X106137349Y-81455662D01*
X106128170Y-81475068D01*
X106117134Y-81493481D01*
X106104346Y-81510724D01*
X106089930Y-81526630D01*
X106074024Y-81541046D01*
X106056781Y-81553834D01*
X106038368Y-81564870D01*
X106018962Y-81574049D01*
X105998750Y-81581281D01*
X105977926Y-81586497D01*
X105956691Y-81589647D01*
X105935250Y-81590700D01*
X105422750Y-81590700D01*
X105401309Y-81589647D01*
X105380074Y-81586497D01*
X105359250Y-81581281D01*
X105339038Y-81574049D01*
X105319632Y-81564870D01*
X105301219Y-81553834D01*
X105283976Y-81541046D01*
X105268070Y-81526630D01*
X105253654Y-81510724D01*
X105240866Y-81493481D01*
X105229830Y-81475068D01*
X105220651Y-81455662D01*
X105213419Y-81435450D01*
X105208203Y-81414626D01*
X105205053Y-81393391D01*
X105204000Y-81371950D01*
X105204000Y-80934450D01*
X105205053Y-80913009D01*
X105208203Y-80891774D01*
X105213419Y-80870950D01*
X105220651Y-80850738D01*
X105229830Y-80831332D01*
X105240866Y-80812919D01*
X105253654Y-80795676D01*
X105268070Y-80779770D01*
X105283976Y-80765354D01*
X105301219Y-80752566D01*
X105319632Y-80741530D01*
X105339038Y-80732351D01*
X105359250Y-80725119D01*
X105380074Y-80719903D01*
X105401309Y-80716753D01*
X105422750Y-80715700D01*
X105935250Y-80715700D01*
X105956691Y-80716753D01*
X105956691Y-80716753D01*
G37*
D18*
X105679000Y-81153200D03*
D11*
G36*
X106006691Y-77321753D02*
G01*
X106027926Y-77324903D01*
X106048750Y-77330119D01*
X106068962Y-77337351D01*
X106088368Y-77346530D01*
X106106781Y-77357566D01*
X106124024Y-77370354D01*
X106139930Y-77384770D01*
X106154346Y-77400676D01*
X106167134Y-77417919D01*
X106178170Y-77436332D01*
X106187349Y-77455738D01*
X106194581Y-77475950D01*
X106199797Y-77496774D01*
X106202947Y-77518009D01*
X106204000Y-77539450D01*
X106204000Y-77976950D01*
X106202947Y-77998391D01*
X106199797Y-78019626D01*
X106194581Y-78040450D01*
X106187349Y-78060662D01*
X106178170Y-78080068D01*
X106167134Y-78098481D01*
X106154346Y-78115724D01*
X106139930Y-78131630D01*
X106124024Y-78146046D01*
X106106781Y-78158834D01*
X106088368Y-78169870D01*
X106068962Y-78179049D01*
X106048750Y-78186281D01*
X106027926Y-78191497D01*
X106006691Y-78194647D01*
X105985250Y-78195700D01*
X105472750Y-78195700D01*
X105451309Y-78194647D01*
X105430074Y-78191497D01*
X105409250Y-78186281D01*
X105389038Y-78179049D01*
X105369632Y-78169870D01*
X105351219Y-78158834D01*
X105333976Y-78146046D01*
X105318070Y-78131630D01*
X105303654Y-78115724D01*
X105290866Y-78098481D01*
X105279830Y-78080068D01*
X105270651Y-78060662D01*
X105263419Y-78040450D01*
X105258203Y-78019626D01*
X105255053Y-77998391D01*
X105254000Y-77976950D01*
X105254000Y-77539450D01*
X105255053Y-77518009D01*
X105258203Y-77496774D01*
X105263419Y-77475950D01*
X105270651Y-77455738D01*
X105279830Y-77436332D01*
X105290866Y-77417919D01*
X105303654Y-77400676D01*
X105318070Y-77384770D01*
X105333976Y-77370354D01*
X105351219Y-77357566D01*
X105369632Y-77346530D01*
X105389038Y-77337351D01*
X105409250Y-77330119D01*
X105430074Y-77324903D01*
X105451309Y-77321753D01*
X105472750Y-77320700D01*
X105985250Y-77320700D01*
X106006691Y-77321753D01*
X106006691Y-77321753D01*
G37*
D18*
X105729000Y-77758200D03*
D11*
G36*
X106006691Y-78896753D02*
G01*
X106027926Y-78899903D01*
X106048750Y-78905119D01*
X106068962Y-78912351D01*
X106088368Y-78921530D01*
X106106781Y-78932566D01*
X106124024Y-78945354D01*
X106139930Y-78959770D01*
X106154346Y-78975676D01*
X106167134Y-78992919D01*
X106178170Y-79011332D01*
X106187349Y-79030738D01*
X106194581Y-79050950D01*
X106199797Y-79071774D01*
X106202947Y-79093009D01*
X106204000Y-79114450D01*
X106204000Y-79551950D01*
X106202947Y-79573391D01*
X106199797Y-79594626D01*
X106194581Y-79615450D01*
X106187349Y-79635662D01*
X106178170Y-79655068D01*
X106167134Y-79673481D01*
X106154346Y-79690724D01*
X106139930Y-79706630D01*
X106124024Y-79721046D01*
X106106781Y-79733834D01*
X106088368Y-79744870D01*
X106068962Y-79754049D01*
X106048750Y-79761281D01*
X106027926Y-79766497D01*
X106006691Y-79769647D01*
X105985250Y-79770700D01*
X105472750Y-79770700D01*
X105451309Y-79769647D01*
X105430074Y-79766497D01*
X105409250Y-79761281D01*
X105389038Y-79754049D01*
X105369632Y-79744870D01*
X105351219Y-79733834D01*
X105333976Y-79721046D01*
X105318070Y-79706630D01*
X105303654Y-79690724D01*
X105290866Y-79673481D01*
X105279830Y-79655068D01*
X105270651Y-79635662D01*
X105263419Y-79615450D01*
X105258203Y-79594626D01*
X105255053Y-79573391D01*
X105254000Y-79551950D01*
X105254000Y-79114450D01*
X105255053Y-79093009D01*
X105258203Y-79071774D01*
X105263419Y-79050950D01*
X105270651Y-79030738D01*
X105279830Y-79011332D01*
X105290866Y-78992919D01*
X105303654Y-78975676D01*
X105318070Y-78959770D01*
X105333976Y-78945354D01*
X105351219Y-78932566D01*
X105369632Y-78921530D01*
X105389038Y-78912351D01*
X105409250Y-78905119D01*
X105430074Y-78899903D01*
X105451309Y-78896753D01*
X105472750Y-78895700D01*
X105985250Y-78895700D01*
X106006691Y-78896753D01*
X106006691Y-78896753D01*
G37*
D18*
X105729000Y-79333200D03*
D12*
X121769000Y-71813200D03*
D13*
X120499000Y-71813200D03*
D10*
X124259000Y-83703200D03*
D11*
G36*
X124259000Y-82953802D02*
G01*
X124283534Y-82953802D01*
X124332365Y-82958612D01*
X124380490Y-82968184D01*
X124427445Y-82982428D01*
X124472778Y-83001205D01*
X124516051Y-83024336D01*
X124556850Y-83051596D01*
X124594779Y-83082724D01*
X124629476Y-83117421D01*
X124660604Y-83155350D01*
X124687864Y-83196149D01*
X124710995Y-83239422D01*
X124729772Y-83284755D01*
X124744016Y-83331710D01*
X124753588Y-83379835D01*
X124758398Y-83428666D01*
X124758398Y-83453200D01*
X124759000Y-83453200D01*
X124759000Y-83953200D01*
X124758398Y-83953200D01*
X124758398Y-83977734D01*
X124753588Y-84026565D01*
X124744016Y-84074690D01*
X124729772Y-84121645D01*
X124710995Y-84166978D01*
X124687864Y-84210251D01*
X124660604Y-84251050D01*
X124629476Y-84288979D01*
X124594779Y-84323676D01*
X124556850Y-84354804D01*
X124516051Y-84382064D01*
X124472778Y-84405195D01*
X124427445Y-84423972D01*
X124380490Y-84438216D01*
X124332365Y-84447788D01*
X124283534Y-84452598D01*
X124259000Y-84452598D01*
X124259000Y-84453200D01*
X123759000Y-84453200D01*
X123759000Y-82953200D01*
X124259000Y-82953200D01*
X124259000Y-82953802D01*
X124259000Y-82953802D01*
G37*
D10*
X122959000Y-83703200D03*
D11*
G36*
X123459000Y-83403200D02*
G01*
X123859000Y-83403200D01*
X123859000Y-84003200D01*
X123459000Y-84003200D01*
X123459000Y-84453200D01*
X122959000Y-84453200D01*
X122959000Y-84452598D01*
X122934466Y-84452598D01*
X122885635Y-84447788D01*
X122837510Y-84438216D01*
X122790555Y-84423972D01*
X122745222Y-84405195D01*
X122701949Y-84382064D01*
X122661150Y-84354804D01*
X122623221Y-84323676D01*
X122588524Y-84288979D01*
X122557396Y-84251050D01*
X122530136Y-84210251D01*
X122507005Y-84166978D01*
X122488228Y-84121645D01*
X122473984Y-84074690D01*
X122464412Y-84026565D01*
X122459602Y-83977734D01*
X122459602Y-83953200D01*
X122459000Y-83953200D01*
X122459000Y-83453200D01*
X122459602Y-83453200D01*
X122459602Y-83428666D01*
X122464412Y-83379835D01*
X122473984Y-83331710D01*
X122488228Y-83284755D01*
X122507005Y-83239422D01*
X122530136Y-83196149D01*
X122557396Y-83155350D01*
X122588524Y-83117421D01*
X122623221Y-83082724D01*
X122661150Y-83051596D01*
X122701949Y-83024336D01*
X122745222Y-83001205D01*
X122790555Y-82982428D01*
X122837510Y-82968184D01*
X122885635Y-82958612D01*
X122934466Y-82953802D01*
X122959000Y-82953802D01*
X122959000Y-82953200D01*
X123459000Y-82953200D01*
X123459000Y-83403200D01*
X123459000Y-83403200D01*
G37*
D10*
X122959000Y-81223200D03*
D11*
G36*
X123459000Y-80923200D02*
G01*
X123859000Y-80923200D01*
X123859000Y-81523200D01*
X123459000Y-81523200D01*
X123459000Y-81973200D01*
X122959000Y-81973200D01*
X122959000Y-81972598D01*
X122934466Y-81972598D01*
X122885635Y-81967788D01*
X122837510Y-81958216D01*
X122790555Y-81943972D01*
X122745222Y-81925195D01*
X122701949Y-81902064D01*
X122661150Y-81874804D01*
X122623221Y-81843676D01*
X122588524Y-81808979D01*
X122557396Y-81771050D01*
X122530136Y-81730251D01*
X122507005Y-81686978D01*
X122488228Y-81641645D01*
X122473984Y-81594690D01*
X122464412Y-81546565D01*
X122459602Y-81497734D01*
X122459602Y-81473200D01*
X122459000Y-81473200D01*
X122459000Y-80973200D01*
X122459602Y-80973200D01*
X122459602Y-80948666D01*
X122464412Y-80899835D01*
X122473984Y-80851710D01*
X122488228Y-80804755D01*
X122507005Y-80759422D01*
X122530136Y-80716149D01*
X122557396Y-80675350D01*
X122588524Y-80637421D01*
X122623221Y-80602724D01*
X122661150Y-80571596D01*
X122701949Y-80544336D01*
X122745222Y-80521205D01*
X122790555Y-80502428D01*
X122837510Y-80488184D01*
X122885635Y-80478612D01*
X122934466Y-80473802D01*
X122959000Y-80473802D01*
X122959000Y-80473200D01*
X123459000Y-80473200D01*
X123459000Y-80923200D01*
X123459000Y-80923200D01*
G37*
D10*
X124259000Y-81223200D03*
D11*
G36*
X124259000Y-80473802D02*
G01*
X124283534Y-80473802D01*
X124332365Y-80478612D01*
X124380490Y-80488184D01*
X124427445Y-80502428D01*
X124472778Y-80521205D01*
X124516051Y-80544336D01*
X124556850Y-80571596D01*
X124594779Y-80602724D01*
X124629476Y-80637421D01*
X124660604Y-80675350D01*
X124687864Y-80716149D01*
X124710995Y-80759422D01*
X124729772Y-80804755D01*
X124744016Y-80851710D01*
X124753588Y-80899835D01*
X124758398Y-80948666D01*
X124758398Y-80973200D01*
X124759000Y-80973200D01*
X124759000Y-81473200D01*
X124758398Y-81473200D01*
X124758398Y-81497734D01*
X124753588Y-81546565D01*
X124744016Y-81594690D01*
X124729772Y-81641645D01*
X124710995Y-81686978D01*
X124687864Y-81730251D01*
X124660604Y-81771050D01*
X124629476Y-81808979D01*
X124594779Y-81843676D01*
X124556850Y-81874804D01*
X124516051Y-81902064D01*
X124472778Y-81925195D01*
X124427445Y-81943972D01*
X124380490Y-81958216D01*
X124332365Y-81967788D01*
X124283534Y-81972598D01*
X124259000Y-81972598D01*
X124259000Y-81973200D01*
X123759000Y-81973200D01*
X123759000Y-80473200D01*
X124259000Y-80473200D01*
X124259000Y-80473802D01*
X124259000Y-80473802D01*
G37*
D10*
X124259000Y-78733200D03*
D11*
G36*
X124259000Y-77983802D02*
G01*
X124283534Y-77983802D01*
X124332365Y-77988612D01*
X124380490Y-77998184D01*
X124427445Y-78012428D01*
X124472778Y-78031205D01*
X124516051Y-78054336D01*
X124556850Y-78081596D01*
X124594779Y-78112724D01*
X124629476Y-78147421D01*
X124660604Y-78185350D01*
X124687864Y-78226149D01*
X124710995Y-78269422D01*
X124729772Y-78314755D01*
X124744016Y-78361710D01*
X124753588Y-78409835D01*
X124758398Y-78458666D01*
X124758398Y-78483200D01*
X124759000Y-78483200D01*
X124759000Y-78983200D01*
X124758398Y-78983200D01*
X124758398Y-79007734D01*
X124753588Y-79056565D01*
X124744016Y-79104690D01*
X124729772Y-79151645D01*
X124710995Y-79196978D01*
X124687864Y-79240251D01*
X124660604Y-79281050D01*
X124629476Y-79318979D01*
X124594779Y-79353676D01*
X124556850Y-79384804D01*
X124516051Y-79412064D01*
X124472778Y-79435195D01*
X124427445Y-79453972D01*
X124380490Y-79468216D01*
X124332365Y-79477788D01*
X124283534Y-79482598D01*
X124259000Y-79482598D01*
X124259000Y-79483200D01*
X123759000Y-79483200D01*
X123759000Y-77983200D01*
X124259000Y-77983200D01*
X124259000Y-77983802D01*
X124259000Y-77983802D01*
G37*
D10*
X122959000Y-78733200D03*
D11*
G36*
X123459000Y-78433200D02*
G01*
X123859000Y-78433200D01*
X123859000Y-79033200D01*
X123459000Y-79033200D01*
X123459000Y-79483200D01*
X122959000Y-79483200D01*
X122959000Y-79482598D01*
X122934466Y-79482598D01*
X122885635Y-79477788D01*
X122837510Y-79468216D01*
X122790555Y-79453972D01*
X122745222Y-79435195D01*
X122701949Y-79412064D01*
X122661150Y-79384804D01*
X122623221Y-79353676D01*
X122588524Y-79318979D01*
X122557396Y-79281050D01*
X122530136Y-79240251D01*
X122507005Y-79196978D01*
X122488228Y-79151645D01*
X122473984Y-79104690D01*
X122464412Y-79056565D01*
X122459602Y-79007734D01*
X122459602Y-78983200D01*
X122459000Y-78983200D01*
X122459000Y-78483200D01*
X122459602Y-78483200D01*
X122459602Y-78458666D01*
X122464412Y-78409835D01*
X122473984Y-78361710D01*
X122488228Y-78314755D01*
X122507005Y-78269422D01*
X122530136Y-78226149D01*
X122557396Y-78185350D01*
X122588524Y-78147421D01*
X122623221Y-78112724D01*
X122661150Y-78081596D01*
X122701949Y-78054336D01*
X122745222Y-78031205D01*
X122790555Y-78012428D01*
X122837510Y-77998184D01*
X122885635Y-77988612D01*
X122934466Y-77983802D01*
X122959000Y-77983802D01*
X122959000Y-77983200D01*
X123459000Y-77983200D01*
X123459000Y-78433200D01*
X123459000Y-78433200D01*
G37*
D10*
X120039000Y-68273200D03*
D11*
G36*
X120339000Y-68773200D02*
G01*
X120339000Y-69173200D01*
X119739000Y-69173200D01*
X119739000Y-68773200D01*
X119289000Y-68773200D01*
X119289000Y-68273200D01*
X119289602Y-68273200D01*
X119289602Y-68248666D01*
X119294412Y-68199835D01*
X119303984Y-68151710D01*
X119318228Y-68104755D01*
X119337005Y-68059422D01*
X119360136Y-68016149D01*
X119387396Y-67975350D01*
X119418524Y-67937421D01*
X119453221Y-67902724D01*
X119491150Y-67871596D01*
X119531949Y-67844336D01*
X119575222Y-67821205D01*
X119620555Y-67802428D01*
X119667510Y-67788184D01*
X119715635Y-67778612D01*
X119764466Y-67773802D01*
X119789000Y-67773802D01*
X119789000Y-67773200D01*
X120289000Y-67773200D01*
X120289000Y-67773802D01*
X120313534Y-67773802D01*
X120362365Y-67778612D01*
X120410490Y-67788184D01*
X120457445Y-67802428D01*
X120502778Y-67821205D01*
X120546051Y-67844336D01*
X120586850Y-67871596D01*
X120624779Y-67902724D01*
X120659476Y-67937421D01*
X120690604Y-67975350D01*
X120717864Y-68016149D01*
X120740995Y-68059422D01*
X120759772Y-68104755D01*
X120774016Y-68151710D01*
X120783588Y-68199835D01*
X120788398Y-68248666D01*
X120788398Y-68273200D01*
X120789000Y-68273200D01*
X120789000Y-68773200D01*
X120339000Y-68773200D01*
X120339000Y-68773200D01*
G37*
D10*
X120039000Y-69573200D03*
D11*
G36*
X120788398Y-69573200D02*
G01*
X120788398Y-69597734D01*
X120783588Y-69646565D01*
X120774016Y-69694690D01*
X120759772Y-69741645D01*
X120740995Y-69786978D01*
X120717864Y-69830251D01*
X120690604Y-69871050D01*
X120659476Y-69908979D01*
X120624779Y-69943676D01*
X120586850Y-69974804D01*
X120546051Y-70002064D01*
X120502778Y-70025195D01*
X120457445Y-70043972D01*
X120410490Y-70058216D01*
X120362365Y-70067788D01*
X120313534Y-70072598D01*
X120289000Y-70072598D01*
X120289000Y-70073200D01*
X119789000Y-70073200D01*
X119789000Y-70072598D01*
X119764466Y-70072598D01*
X119715635Y-70067788D01*
X119667510Y-70058216D01*
X119620555Y-70043972D01*
X119575222Y-70025195D01*
X119531949Y-70002064D01*
X119491150Y-69974804D01*
X119453221Y-69943676D01*
X119418524Y-69908979D01*
X119387396Y-69871050D01*
X119360136Y-69830251D01*
X119337005Y-69786978D01*
X119318228Y-69741645D01*
X119303984Y-69694690D01*
X119294412Y-69646565D01*
X119289602Y-69597734D01*
X119289602Y-69573200D01*
X119289000Y-69573200D01*
X119289000Y-69073200D01*
X120789000Y-69073200D01*
X120789000Y-69573200D01*
X120788398Y-69573200D01*
X120788398Y-69573200D01*
G37*
D10*
X122519000Y-68273200D03*
D11*
G36*
X122819000Y-68773200D02*
G01*
X122819000Y-69173200D01*
X122219000Y-69173200D01*
X122219000Y-68773200D01*
X121769000Y-68773200D01*
X121769000Y-68273200D01*
X121769602Y-68273200D01*
X121769602Y-68248666D01*
X121774412Y-68199835D01*
X121783984Y-68151710D01*
X121798228Y-68104755D01*
X121817005Y-68059422D01*
X121840136Y-68016149D01*
X121867396Y-67975350D01*
X121898524Y-67937421D01*
X121933221Y-67902724D01*
X121971150Y-67871596D01*
X122011949Y-67844336D01*
X122055222Y-67821205D01*
X122100555Y-67802428D01*
X122147510Y-67788184D01*
X122195635Y-67778612D01*
X122244466Y-67773802D01*
X122269000Y-67773802D01*
X122269000Y-67773200D01*
X122769000Y-67773200D01*
X122769000Y-67773802D01*
X122793534Y-67773802D01*
X122842365Y-67778612D01*
X122890490Y-67788184D01*
X122937445Y-67802428D01*
X122982778Y-67821205D01*
X123026051Y-67844336D01*
X123066850Y-67871596D01*
X123104779Y-67902724D01*
X123139476Y-67937421D01*
X123170604Y-67975350D01*
X123197864Y-68016149D01*
X123220995Y-68059422D01*
X123239772Y-68104755D01*
X123254016Y-68151710D01*
X123263588Y-68199835D01*
X123268398Y-68248666D01*
X123268398Y-68273200D01*
X123269000Y-68273200D01*
X123269000Y-68773200D01*
X122819000Y-68773200D01*
X122819000Y-68773200D01*
G37*
D10*
X122519000Y-69573200D03*
D11*
G36*
X123268398Y-69573200D02*
G01*
X123268398Y-69597734D01*
X123263588Y-69646565D01*
X123254016Y-69694690D01*
X123239772Y-69741645D01*
X123220995Y-69786978D01*
X123197864Y-69830251D01*
X123170604Y-69871050D01*
X123139476Y-69908979D01*
X123104779Y-69943676D01*
X123066850Y-69974804D01*
X123026051Y-70002064D01*
X122982778Y-70025195D01*
X122937445Y-70043972D01*
X122890490Y-70058216D01*
X122842365Y-70067788D01*
X122793534Y-70072598D01*
X122769000Y-70072598D01*
X122769000Y-70073200D01*
X122269000Y-70073200D01*
X122269000Y-70072598D01*
X122244466Y-70072598D01*
X122195635Y-70067788D01*
X122147510Y-70058216D01*
X122100555Y-70043972D01*
X122055222Y-70025195D01*
X122011949Y-70002064D01*
X121971150Y-69974804D01*
X121933221Y-69943676D01*
X121898524Y-69908979D01*
X121867396Y-69871050D01*
X121840136Y-69830251D01*
X121817005Y-69786978D01*
X121798228Y-69741645D01*
X121783984Y-69694690D01*
X121774412Y-69646565D01*
X121769602Y-69597734D01*
X121769602Y-69573200D01*
X121769000Y-69573200D01*
X121769000Y-69073200D01*
X123269000Y-69073200D01*
X123269000Y-69573200D01*
X123268398Y-69573200D01*
X123268398Y-69573200D01*
G37*
D10*
X125019000Y-69573200D03*
D11*
G36*
X125768398Y-69573200D02*
G01*
X125768398Y-69597734D01*
X125763588Y-69646565D01*
X125754016Y-69694690D01*
X125739772Y-69741645D01*
X125720995Y-69786978D01*
X125697864Y-69830251D01*
X125670604Y-69871050D01*
X125639476Y-69908979D01*
X125604779Y-69943676D01*
X125566850Y-69974804D01*
X125526051Y-70002064D01*
X125482778Y-70025195D01*
X125437445Y-70043972D01*
X125390490Y-70058216D01*
X125342365Y-70067788D01*
X125293534Y-70072598D01*
X125269000Y-70072598D01*
X125269000Y-70073200D01*
X124769000Y-70073200D01*
X124769000Y-70072598D01*
X124744466Y-70072598D01*
X124695635Y-70067788D01*
X124647510Y-70058216D01*
X124600555Y-70043972D01*
X124555222Y-70025195D01*
X124511949Y-70002064D01*
X124471150Y-69974804D01*
X124433221Y-69943676D01*
X124398524Y-69908979D01*
X124367396Y-69871050D01*
X124340136Y-69830251D01*
X124317005Y-69786978D01*
X124298228Y-69741645D01*
X124283984Y-69694690D01*
X124274412Y-69646565D01*
X124269602Y-69597734D01*
X124269602Y-69573200D01*
X124269000Y-69573200D01*
X124269000Y-69073200D01*
X125769000Y-69073200D01*
X125769000Y-69573200D01*
X125768398Y-69573200D01*
X125768398Y-69573200D01*
G37*
D10*
X125019000Y-68273200D03*
D11*
G36*
X125319000Y-68773200D02*
G01*
X125319000Y-69173200D01*
X124719000Y-69173200D01*
X124719000Y-68773200D01*
X124269000Y-68773200D01*
X124269000Y-68273200D01*
X124269602Y-68273200D01*
X124269602Y-68248666D01*
X124274412Y-68199835D01*
X124283984Y-68151710D01*
X124298228Y-68104755D01*
X124317005Y-68059422D01*
X124340136Y-68016149D01*
X124367396Y-67975350D01*
X124398524Y-67937421D01*
X124433221Y-67902724D01*
X124471150Y-67871596D01*
X124511949Y-67844336D01*
X124555222Y-67821205D01*
X124600555Y-67802428D01*
X124647510Y-67788184D01*
X124695635Y-67778612D01*
X124744466Y-67773802D01*
X124769000Y-67773802D01*
X124769000Y-67773200D01*
X125269000Y-67773200D01*
X125269000Y-67773802D01*
X125293534Y-67773802D01*
X125342365Y-67778612D01*
X125390490Y-67788184D01*
X125437445Y-67802428D01*
X125482778Y-67821205D01*
X125526051Y-67844336D01*
X125566850Y-67871596D01*
X125604779Y-67902724D01*
X125639476Y-67937421D01*
X125670604Y-67975350D01*
X125697864Y-68016149D01*
X125720995Y-68059422D01*
X125739772Y-68104755D01*
X125754016Y-68151710D01*
X125763588Y-68199835D01*
X125768398Y-68248666D01*
X125768398Y-68273200D01*
X125769000Y-68273200D01*
X125769000Y-68773200D01*
X125319000Y-68773200D01*
X125319000Y-68773200D01*
G37*
D19*
X135000000Y-56585000D03*
X135000000Y-57855000D03*
X135000000Y-59125000D03*
X135000000Y-60395000D03*
X135000000Y-61665000D03*
X135000000Y-62935000D03*
X135000000Y-64205000D03*
X135000000Y-65475000D03*
X135000000Y-66745000D03*
X135000000Y-68015000D03*
X135000000Y-69285000D03*
X135000000Y-70555000D03*
X135000000Y-71825000D03*
X135000000Y-73095000D03*
X135000000Y-74365000D03*
X135000000Y-75635000D03*
X135000000Y-76905000D03*
X135000000Y-78175000D03*
X135000000Y-79445000D03*
X135000000Y-80715000D03*
X135000000Y-81985000D03*
X135000000Y-83255000D03*
X135000000Y-84525000D03*
X135000000Y-85795000D03*
X135000000Y-87065000D03*
X135000000Y-88335000D03*
X135000000Y-89605000D03*
X135000000Y-90875000D03*
X135000000Y-92145000D03*
X135000000Y-93415000D03*
D20*
X132868800Y-62953200D03*
X125555053Y-71679453D03*
X139578800Y-93193200D03*
X105795309Y-94437674D03*
X105484039Y-55378439D03*
X110158800Y-76503200D03*
X128798800Y-84413200D03*
X128718800Y-77713200D03*
X141778800Y-56883200D03*
X118531700Y-61673500D03*
X111424600Y-73285600D03*
X116874000Y-77427000D03*
D21*
X135000000Y-62935000D02*
X132887000Y-62935000D01*
X132887000Y-62935000D02*
X132868800Y-62953200D01*
X132048634Y-62953200D02*
X132303115Y-62953200D01*
X125428634Y-69573200D02*
X132048634Y-62953200D01*
X132303115Y-62953200D02*
X132868800Y-62953200D01*
X125019000Y-69573200D02*
X125428634Y-69573200D01*
X105926145Y-94568510D02*
X105795309Y-94437674D01*
X139578800Y-93193200D02*
X138203490Y-94568510D01*
X138203490Y-94568510D02*
X105926145Y-94568510D01*
X105679000Y-81153200D02*
X106683700Y-82157900D01*
X106683700Y-82157900D02*
X109357000Y-82157900D01*
X135000000Y-69285000D02*
X126924200Y-69285000D01*
X126924200Y-69285000D02*
X122841900Y-73367300D01*
X122841900Y-73367300D02*
X122012800Y-73367300D01*
X122012800Y-73367300D02*
X116406800Y-78973300D01*
X116406800Y-78973300D02*
X113835500Y-78973300D01*
X113835500Y-78973300D02*
X110650900Y-82157900D01*
X110650900Y-82157900D02*
X109357000Y-82157900D01*
X118259000Y-82153200D02*
X117433700Y-82153200D01*
X114757000Y-82157900D02*
X117429000Y-82157900D01*
X117429000Y-82157900D02*
X117433700Y-82153200D01*
X118259000Y-82153200D02*
X119084300Y-82153200D01*
X122959000Y-83703200D02*
X120634300Y-83703200D01*
X120634300Y-83703200D02*
X119084300Y-82153200D01*
X118048400Y-80883200D02*
X118388400Y-81223200D01*
X118388400Y-81223200D02*
X122959000Y-81223200D01*
X118048400Y-80883200D02*
X117433700Y-80883200D01*
X118259000Y-80883200D02*
X118048400Y-80883200D01*
X114757000Y-80887900D02*
X117429000Y-80887900D01*
X117429000Y-80887900D02*
X117433700Y-80883200D01*
X118259000Y-79613200D02*
X122079000Y-79613200D01*
X122079000Y-79613200D02*
X122959000Y-78733200D01*
X118048400Y-79613200D02*
X118259000Y-79613200D01*
X118048400Y-79613200D02*
X117433700Y-79613200D01*
X114757000Y-79617900D02*
X117429000Y-79617900D01*
X117429000Y-79617900D02*
X117433700Y-79613200D01*
X126205000Y-64871600D02*
X126205000Y-64046300D01*
X125070000Y-59639200D02*
X125070000Y-62911300D01*
X125070000Y-62911300D02*
X126205000Y-64046300D01*
X125019000Y-68273200D02*
X124935000Y-68189200D01*
X124935000Y-68189200D02*
X124935000Y-64871600D01*
X123665000Y-64871600D02*
X123665000Y-65696900D01*
X122519000Y-68273200D02*
X122519000Y-66842900D01*
X122519000Y-66842900D02*
X123665000Y-65696900D01*
X122395000Y-64046300D02*
X119296900Y-60948200D01*
X119296900Y-60948200D02*
X118677900Y-60948200D01*
X118677900Y-60948200D02*
X117836500Y-60106800D01*
X117836500Y-60106800D02*
X117836500Y-59185100D01*
X117836500Y-59185100D02*
X118847000Y-58174600D01*
X118847000Y-58174600D02*
X120934600Y-58174600D01*
X120934600Y-58174600D02*
X122010000Y-57099200D01*
X122395000Y-64871600D02*
X122395000Y-64046300D01*
X120039000Y-68273200D02*
X119855000Y-68089200D01*
X119855000Y-68089200D02*
X119855000Y-64871600D01*
X118531700Y-61673500D02*
X118585000Y-61726800D01*
X118585000Y-61726800D02*
X118585000Y-64871600D01*
X135000000Y-74365000D02*
X126127200Y-74365000D01*
X126127200Y-74365000D02*
X124259000Y-76233200D01*
X135000000Y-75635000D02*
X136025300Y-75635000D01*
X136025300Y-75635000D02*
X136025300Y-87659800D01*
X136025300Y-87659800D02*
X136505900Y-88140400D01*
X136505900Y-88140400D02*
X136505900Y-93621200D01*
X136505900Y-93621200D02*
X136008600Y-94118500D01*
X136008600Y-94118500D02*
X134366100Y-94118500D01*
X134366100Y-94118500D02*
X124259000Y-84011400D01*
X124259000Y-84011400D02*
X124259000Y-83703200D01*
X124970800Y-79445000D02*
X124259000Y-78733200D01*
X135000000Y-79445000D02*
X124970800Y-79445000D01*
X124970800Y-79445000D02*
X124970800Y-80511400D01*
X124970800Y-80511400D02*
X124259000Y-81223200D01*
X135000000Y-88335000D02*
X136025300Y-88335000D01*
X136025300Y-90875000D02*
X136025300Y-88335000D01*
X135912700Y-90875000D02*
X136025300Y-90875000D01*
X135000000Y-90875000D02*
X135912700Y-90875000D01*
X135000000Y-93415000D02*
X136025300Y-93415000D01*
X136025300Y-93415000D02*
X136025300Y-90875000D01*
X121769000Y-71813200D02*
X116880500Y-76701700D01*
X116880500Y-76701700D02*
X113373600Y-76701700D01*
X113373600Y-76701700D02*
X110457400Y-79617900D01*
X110457400Y-79617900D02*
X109357000Y-79617900D01*
X111424600Y-73285600D02*
X110201600Y-73285600D01*
X110201600Y-73285600D02*
X105729000Y-77758200D01*
X122519000Y-69573200D02*
X121769000Y-70323200D01*
X121769000Y-70323200D02*
X121769000Y-71813200D01*
X120499000Y-71813200D02*
X110429500Y-71813200D01*
X110429500Y-71813200D02*
X104927900Y-77314800D01*
X104927900Y-77314800D02*
X104927900Y-78532100D01*
X104927900Y-78532100D02*
X105729000Y-79333200D01*
X105729000Y-79333200D02*
X107283700Y-80887900D01*
X107283700Y-80887900D02*
X109357000Y-80887900D01*
X120039000Y-69573200D02*
X120499000Y-70033200D01*
X120499000Y-70033200D02*
X120499000Y-71813200D01*
X118259000Y-78343200D02*
X119084300Y-78343200D01*
X119084300Y-78343200D02*
X121194300Y-76233200D01*
X121194300Y-76233200D02*
X122959000Y-76233200D01*
X114757000Y-78347900D02*
X115953100Y-78347900D01*
X115953100Y-78347900D02*
X116874000Y-77427000D01*
D22*
G36*
X107300273Y-50139184D02*
G01*
X107340872Y-50273020D01*
X107406800Y-50396363D01*
X107495525Y-50504475D01*
X107575128Y-50569803D01*
X107603637Y-50593200D01*
X107726980Y-50659128D01*
X107860816Y-50699727D01*
X108000000Y-50713435D01*
X108034877Y-50710000D01*
X141965123Y-50710000D01*
X142000000Y-50713435D01*
X142034877Y-50710000D01*
X142139184Y-50699727D01*
X142273020Y-50659128D01*
X142396363Y-50593200D01*
X142504475Y-50504475D01*
X142593200Y-50396363D01*
X142659128Y-50273020D01*
X142699727Y-50139184D01*
X142702187Y-50114200D01*
X147208106Y-50114200D01*
X147721830Y-50164571D01*
X148223785Y-50316120D01*
X148686737Y-50562276D01*
X149093069Y-50893673D01*
X149427287Y-51297672D01*
X149676672Y-51758898D01*
X149831722Y-52259785D01*
X149847300Y-52408001D01*
X149847300Y-54304373D01*
X149726980Y-54340872D01*
X149603637Y-54406800D01*
X149495525Y-54495525D01*
X149406800Y-54603637D01*
X149340872Y-54726980D01*
X149300273Y-54860816D01*
X149286565Y-55000000D01*
X149290000Y-55034877D01*
X149290001Y-56568377D01*
X136256544Y-63326466D01*
X136294885Y-63213238D01*
X136166431Y-63062000D01*
X135127000Y-63062000D01*
X135127000Y-63082000D01*
X134873000Y-63082000D01*
X134873000Y-63062000D01*
X133833569Y-63062000D01*
X133705115Y-63213238D01*
X133760446Y-63376641D01*
X133863698Y-63541698D01*
X133893845Y-63573714D01*
X133827040Y-63655116D01*
X133735576Y-63826233D01*
X133679253Y-64011906D01*
X133660235Y-64205000D01*
X133679253Y-64398094D01*
X133735576Y-64583767D01*
X133827040Y-64754884D01*
X133896893Y-64840000D01*
X133827040Y-64925116D01*
X133735576Y-65096233D01*
X133679253Y-65281906D01*
X133660235Y-65475000D01*
X133679253Y-65668094D01*
X133735576Y-65853767D01*
X133827040Y-66024884D01*
X133896893Y-66110000D01*
X133827040Y-66195116D01*
X133735576Y-66366233D01*
X133679253Y-66551906D01*
X133660235Y-66745000D01*
X133679253Y-66938094D01*
X133735576Y-67123767D01*
X133827040Y-67294884D01*
X133896893Y-67380000D01*
X133827040Y-67465116D01*
X133735576Y-67636233D01*
X133679253Y-67821906D01*
X133660235Y-68015000D01*
X133679253Y-68208094D01*
X133735576Y-68393767D01*
X133805722Y-68525000D01*
X126961522Y-68525000D01*
X126924199Y-68521324D01*
X126886876Y-68525000D01*
X126886867Y-68525000D01*
X126775214Y-68535997D01*
X126678129Y-68565447D01*
X126631953Y-68579454D01*
X126499923Y-68650026D01*
X126442107Y-68697475D01*
X126407072Y-68726228D01*
X126407072Y-68273200D01*
X126404664Y-68248750D01*
X126404664Y-68224191D01*
X126392404Y-68099710D01*
X126373282Y-68003577D01*
X126336973Y-67883881D01*
X126299464Y-67793325D01*
X126240498Y-67683008D01*
X126186042Y-67601509D01*
X126106690Y-67504818D01*
X126037382Y-67435510D01*
X125940691Y-67356158D01*
X125859192Y-67301702D01*
X125748875Y-67242736D01*
X125695000Y-67220421D01*
X125695000Y-66008687D01*
X125705000Y-66009672D01*
X126705000Y-66009672D01*
X126829482Y-65997412D01*
X126949180Y-65961102D01*
X127059494Y-65902137D01*
X127156185Y-65822785D01*
X127235537Y-65726094D01*
X127294502Y-65615780D01*
X127330812Y-65496082D01*
X127343072Y-65371600D01*
X127343072Y-64371600D01*
X127330812Y-64247118D01*
X127294502Y-64127420D01*
X127235537Y-64017106D01*
X127156185Y-63920415D01*
X127059494Y-63841063D01*
X126949180Y-63782098D01*
X126916000Y-63772033D01*
X126910546Y-63754053D01*
X126839974Y-63622024D01*
X126777808Y-63546274D01*
X126768799Y-63535296D01*
X126768795Y-63535292D01*
X126745001Y-63506299D01*
X126716008Y-63482505D01*
X125830000Y-62596499D01*
X125830000Y-61665000D01*
X133660235Y-61665000D01*
X133679253Y-61858094D01*
X133735576Y-62043767D01*
X133827040Y-62214884D01*
X133893845Y-62296286D01*
X133863698Y-62328302D01*
X133760446Y-62493359D01*
X133705115Y-62656762D01*
X133833569Y-62808000D01*
X134873000Y-62808000D01*
X134873000Y-62788000D01*
X135127000Y-62788000D01*
X135127000Y-62808000D01*
X136166431Y-62808000D01*
X136294885Y-62656762D01*
X136239554Y-62493359D01*
X136136302Y-62328302D01*
X136106155Y-62296286D01*
X136172960Y-62214884D01*
X136264424Y-62043767D01*
X136320747Y-61858094D01*
X136339765Y-61665000D01*
X136320747Y-61471906D01*
X136264424Y-61286233D01*
X136172960Y-61115116D01*
X136106155Y-61033714D01*
X136136302Y-61001698D01*
X136239554Y-60836641D01*
X136294885Y-60673238D01*
X136166431Y-60522000D01*
X135127000Y-60522000D01*
X135127000Y-60542000D01*
X134873000Y-60542000D01*
X134873000Y-60522000D01*
X133833569Y-60522000D01*
X133705115Y-60673238D01*
X133760446Y-60836641D01*
X133863698Y-61001698D01*
X133893845Y-61033714D01*
X133827040Y-61115116D01*
X133735576Y-61286233D01*
X133679253Y-61471906D01*
X133660235Y-61665000D01*
X125830000Y-61665000D01*
X125830000Y-61026287D01*
X125944482Y-61015012D01*
X126064180Y-60978702D01*
X126174494Y-60919737D01*
X126271185Y-60840385D01*
X126350537Y-60743694D01*
X126409502Y-60633380D01*
X126445812Y-60513682D01*
X126458072Y-60389200D01*
X126458072Y-59478167D01*
X127480000Y-59478167D01*
X127480000Y-59800233D01*
X127542832Y-60116112D01*
X127666082Y-60413663D01*
X127845013Y-60681452D01*
X128072748Y-60909187D01*
X128340537Y-61088118D01*
X128638088Y-61211368D01*
X128953967Y-61274200D01*
X129276033Y-61274200D01*
X129591912Y-61211368D01*
X129889463Y-61088118D01*
X130157252Y-60909187D01*
X130384987Y-60681452D01*
X130563918Y-60413663D01*
X130687168Y-60116112D01*
X130750000Y-59800233D01*
X130750000Y-59478167D01*
X130687168Y-59162288D01*
X130671723Y-59125000D01*
X133660235Y-59125000D01*
X133679253Y-59318094D01*
X133735576Y-59503767D01*
X133827040Y-59674884D01*
X133893845Y-59756286D01*
X133863698Y-59788302D01*
X133760446Y-59953359D01*
X133705115Y-60116762D01*
X133833569Y-60268000D01*
X134873000Y-60268000D01*
X134873000Y-60248000D01*
X135127000Y-60248000D01*
X135127000Y-60268000D01*
X136166431Y-60268000D01*
X136294885Y-60116762D01*
X136239554Y-59953359D01*
X136136302Y-59788302D01*
X136106155Y-59756286D01*
X136172960Y-59674884D01*
X136264424Y-59503767D01*
X136320747Y-59318094D01*
X136339765Y-59125000D01*
X136320747Y-58931906D01*
X136264424Y-58746233D01*
X136172960Y-58575116D01*
X136106155Y-58493714D01*
X136136302Y-58461698D01*
X136239554Y-58296641D01*
X136294885Y-58133238D01*
X136166431Y-57982000D01*
X135127000Y-57982000D01*
X135127000Y-58002000D01*
X134873000Y-58002000D01*
X134873000Y-57982000D01*
X133833569Y-57982000D01*
X133705115Y-58133238D01*
X133760446Y-58296641D01*
X133863698Y-58461698D01*
X133893845Y-58493714D01*
X133827040Y-58575116D01*
X133735576Y-58746233D01*
X133679253Y-58931906D01*
X133660235Y-59125000D01*
X130671723Y-59125000D01*
X130563918Y-58864737D01*
X130384987Y-58596948D01*
X130157252Y-58369213D01*
X129889463Y-58190282D01*
X129591912Y-58067032D01*
X129276033Y-58004200D01*
X128953967Y-58004200D01*
X128638088Y-58067032D01*
X128340537Y-58190282D01*
X128072748Y-58369213D01*
X127845013Y-58596948D01*
X127666082Y-58864737D01*
X127542832Y-59162288D01*
X127480000Y-59478167D01*
X126458072Y-59478167D01*
X126458072Y-58889200D01*
X126445812Y-58764718D01*
X126409502Y-58645020D01*
X126350537Y-58534706D01*
X126271185Y-58438015D01*
X126174494Y-58358663D01*
X126064180Y-58299698D01*
X125944482Y-58263388D01*
X125820000Y-58251128D01*
X124818951Y-58251128D01*
X124932886Y-58174999D01*
X125125799Y-57982086D01*
X125277371Y-57755243D01*
X125381775Y-57503189D01*
X125435000Y-57235611D01*
X125435000Y-56962789D01*
X125381775Y-56695211D01*
X125336125Y-56585000D01*
X133660235Y-56585000D01*
X133679253Y-56778094D01*
X133735576Y-56963767D01*
X133827040Y-57134884D01*
X133893845Y-57216286D01*
X133863698Y-57248302D01*
X133760446Y-57413359D01*
X133705115Y-57576762D01*
X133833569Y-57728000D01*
X134873000Y-57728000D01*
X134873000Y-57708000D01*
X135127000Y-57708000D01*
X135127000Y-57728000D01*
X136166431Y-57728000D01*
X136294885Y-57576762D01*
X136239554Y-57413359D01*
X136136302Y-57248302D01*
X136106155Y-57216286D01*
X136172960Y-57134884D01*
X136264424Y-56963767D01*
X136320747Y-56778094D01*
X136339765Y-56585000D01*
X136320747Y-56391906D01*
X136264424Y-56206233D01*
X136172960Y-56035116D01*
X136049870Y-55885130D01*
X135899884Y-55762040D01*
X135728767Y-55670576D01*
X135543094Y-55614253D01*
X135398380Y-55600000D01*
X134601620Y-55600000D01*
X134456906Y-55614253D01*
X134271233Y-55670576D01*
X134100116Y-55762040D01*
X133950130Y-55885130D01*
X133827040Y-56035116D01*
X133735576Y-56206233D01*
X133679253Y-56391906D01*
X133660235Y-56585000D01*
X125336125Y-56585000D01*
X125277371Y-56443157D01*
X125125799Y-56216314D01*
X124932886Y-56023401D01*
X124706043Y-55871829D01*
X124453989Y-55767425D01*
X124186411Y-55714200D01*
X123913589Y-55714200D01*
X123646011Y-55767425D01*
X123393957Y-55871829D01*
X123167114Y-56023401D01*
X123030000Y-56160515D01*
X122892886Y-56023401D01*
X122666043Y-55871829D01*
X122413989Y-55767425D01*
X122146411Y-55714200D01*
X121873589Y-55714200D01*
X121606011Y-55767425D01*
X121353957Y-55871829D01*
X121127114Y-56023401D01*
X120990000Y-56160515D01*
X120852886Y-56023401D01*
X120626043Y-55871829D01*
X120373989Y-55767425D01*
X120106411Y-55714200D01*
X119833589Y-55714200D01*
X119566011Y-55767425D01*
X119313957Y-55871829D01*
X119087114Y-56023401D01*
X118950000Y-56160515D01*
X118812886Y-56023401D01*
X118586043Y-55871829D01*
X118333989Y-55767425D01*
X118066411Y-55714200D01*
X117793589Y-55714200D01*
X117526011Y-55767425D01*
X117273957Y-55871829D01*
X117047114Y-56023401D01*
X116854201Y-56216314D01*
X116702629Y-56443157D01*
X116598225Y-56695211D01*
X116545000Y-56962789D01*
X116545000Y-57235611D01*
X116598225Y-57503189D01*
X116702629Y-57755243D01*
X116854201Y-57982086D01*
X117047114Y-58174999D01*
X117273957Y-58326571D01*
X117518808Y-58427991D01*
X117325498Y-58621301D01*
X117296500Y-58645099D01*
X117272702Y-58674097D01*
X117272701Y-58674098D01*
X117201526Y-58760824D01*
X117130954Y-58892854D01*
X117087498Y-59036115D01*
X117072824Y-59185100D01*
X117076501Y-59222432D01*
X117076500Y-60069477D01*
X117072824Y-60106800D01*
X117076500Y-60144122D01*
X117076500Y-60144132D01*
X117087497Y-60255785D01*
X117126512Y-60384401D01*
X117130954Y-60399046D01*
X117201526Y-60531076D01*
X117241371Y-60579626D01*
X117296499Y-60646801D01*
X117325502Y-60670603D01*
X117704075Y-61049177D01*
X117614495Y-61183244D01*
X117536474Y-61371602D01*
X117496700Y-61571561D01*
X117496700Y-61775439D01*
X117536474Y-61975398D01*
X117614495Y-62163756D01*
X117727763Y-62333274D01*
X117825000Y-62430511D01*
X117825001Y-63857239D01*
X117751447Y-63817924D01*
X117537499Y-63753023D01*
X117370752Y-63736600D01*
X117259248Y-63736600D01*
X117092501Y-63753023D01*
X116878553Y-63817924D01*
X116681377Y-63923316D01*
X116508551Y-64065151D01*
X116366716Y-64237977D01*
X116261324Y-64435153D01*
X116196423Y-64649101D01*
X116174509Y-64871600D01*
X116196423Y-65094099D01*
X116261324Y-65308047D01*
X116366716Y-65505223D01*
X116508551Y-65678049D01*
X116681377Y-65819884D01*
X116878553Y-65925276D01*
X117092501Y-65990177D01*
X117259248Y-66006600D01*
X117370752Y-66006600D01*
X117537499Y-65990177D01*
X117751447Y-65925276D01*
X117948623Y-65819884D01*
X117950000Y-65818754D01*
X117951377Y-65819884D01*
X118148553Y-65925276D01*
X118362501Y-65990177D01*
X118529248Y-66006600D01*
X118640752Y-66006600D01*
X118807499Y-65990177D01*
X119021447Y-65925276D01*
X119095001Y-65885961D01*
X119095000Y-67374466D01*
X119020618Y-67435510D01*
X118951310Y-67504818D01*
X118871958Y-67601509D01*
X118817502Y-67683008D01*
X118758536Y-67793325D01*
X118721027Y-67883881D01*
X118684718Y-68003577D01*
X118665596Y-68099710D01*
X118653336Y-68224191D01*
X118653336Y-68248750D01*
X118650928Y-68273200D01*
X118650928Y-68773200D01*
X118663188Y-68897682D01*
X118670929Y-68923200D01*
X118663188Y-68948718D01*
X118650928Y-69073200D01*
X118650928Y-69573200D01*
X118653336Y-69597650D01*
X118653336Y-69622209D01*
X118665596Y-69746690D01*
X118684718Y-69842823D01*
X118721027Y-69962519D01*
X118758536Y-70053075D01*
X118817502Y-70163392D01*
X118871958Y-70244891D01*
X118951310Y-70341582D01*
X119020618Y-70410890D01*
X119117309Y-70490242D01*
X119198808Y-70544698D01*
X119309125Y-70603664D01*
X119399681Y-70641173D01*
X119519377Y-70677482D01*
X119615510Y-70696604D01*
X119739000Y-70708766D01*
X119739001Y-70968631D01*
X119692551Y-71006751D01*
X119654431Y-71053200D01*
X110466822Y-71053200D01*
X110429499Y-71049524D01*
X110392176Y-71053200D01*
X110392167Y-71053200D01*
X110280514Y-71064197D01*
X110137253Y-71107654D01*
X110005224Y-71178226D01*
X109889499Y-71273199D01*
X109865701Y-71302197D01*
X104416903Y-76750996D01*
X104387899Y-76774799D01*
X104332771Y-76841974D01*
X104292926Y-76890524D01*
X104237645Y-76993947D01*
X104222354Y-77022554D01*
X104178897Y-77165815D01*
X104167900Y-77277468D01*
X104167900Y-77277478D01*
X104164224Y-77314800D01*
X104167900Y-77352123D01*
X104167901Y-78494768D01*
X104164224Y-78532100D01*
X104167901Y-78569433D01*
X104178898Y-78681086D01*
X104183421Y-78695997D01*
X104222354Y-78824346D01*
X104292926Y-78956376D01*
X104362338Y-79040954D01*
X104387900Y-79072101D01*
X104416897Y-79095899D01*
X104615928Y-79294930D01*
X104615928Y-79551950D01*
X104632392Y-79719108D01*
X104681150Y-79879842D01*
X104760329Y-80027975D01*
X104866885Y-80157815D01*
X104945928Y-80222683D01*
X104816885Y-80328585D01*
X104710329Y-80458425D01*
X104631150Y-80606558D01*
X104582392Y-80767292D01*
X104565928Y-80934450D01*
X104565928Y-81371950D01*
X104582392Y-81539108D01*
X104631150Y-81699842D01*
X104710329Y-81847975D01*
X104728100Y-81869630D01*
X104673463Y-81936206D01*
X104614498Y-82046520D01*
X104578188Y-82166218D01*
X104565928Y-82290700D01*
X104569000Y-82442450D01*
X104727750Y-82601200D01*
X105552000Y-82601200D01*
X105552000Y-82581200D01*
X105806000Y-82581200D01*
X105806000Y-82601200D01*
X105826000Y-82601200D01*
X105826000Y-82855200D01*
X105806000Y-82855200D01*
X105806000Y-83641950D01*
X105964750Y-83800700D01*
X106154000Y-83803772D01*
X106278482Y-83791512D01*
X106398180Y-83755202D01*
X106508494Y-83696237D01*
X106605185Y-83616885D01*
X106684537Y-83520194D01*
X106743502Y-83409880D01*
X106779812Y-83290182D01*
X106792072Y-83165700D01*
X106789000Y-83013950D01*
X106695467Y-82920417D01*
X106721022Y-82917900D01*
X108141556Y-82917900D01*
X108227506Y-82988437D01*
X108337820Y-83047402D01*
X108457518Y-83083712D01*
X108582000Y-83095972D01*
X110132000Y-83095972D01*
X110256482Y-83083712D01*
X110376180Y-83047402D01*
X110486494Y-82988437D01*
X110572444Y-82917900D01*
X110613578Y-82917900D01*
X110650900Y-82921576D01*
X110688222Y-82917900D01*
X110688233Y-82917900D01*
X110799886Y-82906903D01*
X110943147Y-82863446D01*
X111075176Y-82792874D01*
X111190901Y-82697901D01*
X111214704Y-82668897D01*
X113349197Y-80534405D01*
X113343928Y-80587900D01*
X113343928Y-81187900D01*
X113356188Y-81312382D01*
X113392498Y-81432080D01*
X113441043Y-81522900D01*
X113392498Y-81613720D01*
X113356188Y-81733418D01*
X113343928Y-81857900D01*
X113343928Y-82457900D01*
X113356188Y-82582382D01*
X113392498Y-82702080D01*
X113451463Y-82812394D01*
X113530815Y-82909085D01*
X113627506Y-82988437D01*
X113737820Y-83047402D01*
X113857518Y-83083712D01*
X113982000Y-83095972D01*
X115532000Y-83095972D01*
X115656482Y-83083712D01*
X115776180Y-83047402D01*
X115886494Y-82988437D01*
X115972444Y-82917900D01*
X117180466Y-82917900D01*
X117228463Y-83007694D01*
X117307815Y-83104385D01*
X117404506Y-83183737D01*
X117514820Y-83242702D01*
X117634518Y-83279012D01*
X117759000Y-83291272D01*
X118759000Y-83291272D01*
X118883482Y-83279012D01*
X119003180Y-83242702D01*
X119065623Y-83209325D01*
X120070501Y-84214203D01*
X120094299Y-84243201D01*
X120123297Y-84266999D01*
X120210023Y-84338174D01*
X120342053Y-84408746D01*
X120485314Y-84452203D01*
X120596967Y-84463200D01*
X120596977Y-84463200D01*
X120634299Y-84466876D01*
X120671622Y-84463200D01*
X121944638Y-84463200D01*
X121987502Y-84543392D01*
X122041958Y-84624891D01*
X122121310Y-84721582D01*
X122190618Y-84790890D01*
X122287309Y-84870242D01*
X122368808Y-84924698D01*
X122479125Y-84983664D01*
X122569681Y-85021173D01*
X122689377Y-85057482D01*
X122785510Y-85076604D01*
X122909991Y-85088864D01*
X122934550Y-85088864D01*
X122959000Y-85091272D01*
X123459000Y-85091272D01*
X123583482Y-85079012D01*
X123609000Y-85071271D01*
X123634518Y-85079012D01*
X123759000Y-85091272D01*
X124259000Y-85091272D01*
X124263616Y-85090817D01*
X133802301Y-94629503D01*
X133826099Y-94658501D01*
X133855097Y-94682299D01*
X133941823Y-94753474D01*
X134073853Y-94824046D01*
X134217114Y-94867503D01*
X134328767Y-94878500D01*
X134328777Y-94878500D01*
X134366100Y-94882176D01*
X134403423Y-94878500D01*
X135971278Y-94878500D01*
X136008600Y-94882176D01*
X136045922Y-94878500D01*
X136045933Y-94878500D01*
X136157586Y-94867503D01*
X136300847Y-94824046D01*
X136432876Y-94753474D01*
X136548601Y-94658501D01*
X136572403Y-94629498D01*
X137016902Y-94185000D01*
X137045901Y-94161201D01*
X137140874Y-94045476D01*
X137211446Y-93913447D01*
X137254903Y-93770186D01*
X137265900Y-93658533D01*
X137265900Y-93658524D01*
X137269576Y-93621201D01*
X137265900Y-93583878D01*
X137265900Y-88177722D01*
X137269576Y-88140399D01*
X137265900Y-88103076D01*
X137265900Y-88103067D01*
X137254903Y-87991414D01*
X137211446Y-87848153D01*
X137140875Y-87716125D01*
X137140874Y-87716123D01*
X137094650Y-87659800D01*
X137045901Y-87600399D01*
X137016898Y-87576597D01*
X136785300Y-87344999D01*
X136785300Y-86947704D01*
X149265000Y-93418660D01*
X149265001Y-95036105D01*
X149275636Y-95144085D01*
X149317664Y-95282633D01*
X149385914Y-95410320D01*
X149477763Y-95522238D01*
X149589681Y-95614087D01*
X149717368Y-95682337D01*
X149847300Y-95721751D01*
X149847300Y-97700771D01*
X149837335Y-97802403D01*
X149691427Y-98285673D01*
X149454429Y-98731402D01*
X149135371Y-99122604D01*
X148746407Y-99444384D01*
X148302348Y-99684485D01*
X147820102Y-99833765D01*
X147285071Y-99890000D01*
X142702601Y-99890000D01*
X142699727Y-99860816D01*
X142659128Y-99726980D01*
X142593200Y-99603637D01*
X142504475Y-99495525D01*
X142396363Y-99406800D01*
X142273020Y-99340872D01*
X142139184Y-99300273D01*
X142034877Y-99290000D01*
X142000000Y-99286565D01*
X141965123Y-99290000D01*
X108034877Y-99290000D01*
X108000000Y-99286565D01*
X107965123Y-99290000D01*
X107860816Y-99300273D01*
X107726980Y-99340872D01*
X107603637Y-99406800D01*
X107495525Y-99495525D01*
X107406800Y-99603637D01*
X107340872Y-99726980D01*
X107300273Y-99860816D01*
X107297399Y-99890000D01*
X102834720Y-99890000D01*
X102278169Y-99835429D01*
X101776219Y-99683881D01*
X101313262Y-99437723D01*
X100906932Y-99106329D01*
X100572713Y-98702328D01*
X100323326Y-98241097D01*
X100168278Y-97740215D01*
X100119211Y-97273367D01*
X100117965Y-96779872D01*
X100765000Y-96779872D01*
X100765000Y-97220128D01*
X100850890Y-97651925D01*
X101019369Y-98058669D01*
X101263962Y-98424729D01*
X101575271Y-98736038D01*
X101941331Y-98980631D01*
X102348075Y-99149110D01*
X102779872Y-99235000D01*
X103220128Y-99235000D01*
X103651925Y-99149110D01*
X104058669Y-98980631D01*
X104424729Y-98736038D01*
X104736038Y-98424729D01*
X104980631Y-98058669D01*
X105149110Y-97651925D01*
X105235000Y-97220128D01*
X105235000Y-96829117D01*
X105265000Y-96829117D01*
X105265000Y-97170883D01*
X105331675Y-97506081D01*
X105462463Y-97821831D01*
X105652337Y-98105998D01*
X105894002Y-98347663D01*
X106178169Y-98537537D01*
X106493919Y-98668325D01*
X106829117Y-98735000D01*
X107170883Y-98735000D01*
X107506081Y-98668325D01*
X107821831Y-98537537D01*
X108105998Y-98347663D01*
X108347663Y-98105998D01*
X108537537Y-97821831D01*
X108668325Y-97506081D01*
X108735000Y-97170883D01*
X108735000Y-96829117D01*
X141265000Y-96829117D01*
X141265000Y-97170883D01*
X141331675Y-97506081D01*
X141462463Y-97821831D01*
X141652337Y-98105998D01*
X141894002Y-98347663D01*
X142178169Y-98537537D01*
X142493919Y-98668325D01*
X142829117Y-98735000D01*
X143170883Y-98735000D01*
X143506081Y-98668325D01*
X143821831Y-98537537D01*
X144105998Y-98347663D01*
X144347663Y-98105998D01*
X144537537Y-97821831D01*
X144668325Y-97506081D01*
X144735000Y-97170883D01*
X144735000Y-96829117D01*
X144725205Y-96779872D01*
X144765000Y-96779872D01*
X144765000Y-97220128D01*
X144850890Y-97651925D01*
X145019369Y-98058669D01*
X145263962Y-98424729D01*
X145575271Y-98736038D01*
X145941331Y-98980631D01*
X146348075Y-99149110D01*
X146779872Y-99235000D01*
X147220128Y-99235000D01*
X147651925Y-99149110D01*
X148058669Y-98980631D01*
X148424729Y-98736038D01*
X148736038Y-98424729D01*
X148980631Y-98058669D01*
X149149110Y-97651925D01*
X149235000Y-97220128D01*
X149235000Y-96779872D01*
X149149110Y-96348075D01*
X148980631Y-95941331D01*
X148736038Y-95575271D01*
X148424729Y-95263962D01*
X148058669Y-95019369D01*
X147651925Y-94850890D01*
X147220128Y-94765000D01*
X146779872Y-94765000D01*
X146348075Y-94850890D01*
X145941331Y-95019369D01*
X145575271Y-95263962D01*
X145263962Y-95575271D01*
X145019369Y-95941331D01*
X144850890Y-96348075D01*
X144765000Y-96779872D01*
X144725205Y-96779872D01*
X144668325Y-96493919D01*
X144537537Y-96178169D01*
X144347663Y-95894002D01*
X144105998Y-95652337D01*
X143821831Y-95462463D01*
X143506081Y-95331675D01*
X143170883Y-95265000D01*
X142829117Y-95265000D01*
X142493919Y-95331675D01*
X142178169Y-95462463D01*
X141894002Y-95652337D01*
X141652337Y-95894002D01*
X141462463Y-96178169D01*
X141331675Y-96493919D01*
X141265000Y-96829117D01*
X108735000Y-96829117D01*
X108668325Y-96493919D01*
X108537537Y-96178169D01*
X108347663Y-95894002D01*
X108105998Y-95652337D01*
X107821831Y-95462463D01*
X107506081Y-95331675D01*
X107170883Y-95265000D01*
X106829117Y-95265000D01*
X106493919Y-95331675D01*
X106178169Y-95462463D01*
X105894002Y-95652337D01*
X105652337Y-95894002D01*
X105462463Y-96178169D01*
X105331675Y-96493919D01*
X105265000Y-96829117D01*
X105235000Y-96829117D01*
X105235000Y-96779872D01*
X105149110Y-96348075D01*
X104980631Y-95941331D01*
X104736038Y-95575271D01*
X104424729Y-95263962D01*
X104058669Y-95019369D01*
X103651925Y-94850890D01*
X103220128Y-94765000D01*
X102779872Y-94765000D01*
X102348075Y-94850890D01*
X101941331Y-95019369D01*
X101575271Y-95263962D01*
X101263962Y-95575271D01*
X101019369Y-95941331D01*
X100850890Y-96348075D01*
X100765000Y-96779872D01*
X100117965Y-96779872D01*
X100115243Y-95702085D01*
X100139184Y-95699727D01*
X100273020Y-95659128D01*
X100396363Y-95593200D01*
X100504475Y-95504475D01*
X100593200Y-95396363D01*
X100659128Y-95273020D01*
X100699727Y-95139184D01*
X100713435Y-95000000D01*
X100710000Y-94965123D01*
X100710000Y-83165700D01*
X104565928Y-83165700D01*
X104578188Y-83290182D01*
X104614498Y-83409880D01*
X104673463Y-83520194D01*
X104752815Y-83616885D01*
X104849506Y-83696237D01*
X104959820Y-83755202D01*
X105079518Y-83791512D01*
X105204000Y-83803772D01*
X105393250Y-83800700D01*
X105552000Y-83641950D01*
X105552000Y-82855200D01*
X104727750Y-82855200D01*
X104569000Y-83013950D01*
X104565928Y-83165700D01*
X100710000Y-83165700D01*
X100710000Y-59478167D01*
X111230000Y-59478167D01*
X111230000Y-59800233D01*
X111292832Y-60116112D01*
X111416082Y-60413663D01*
X111595013Y-60681452D01*
X111822748Y-60909187D01*
X112090537Y-61088118D01*
X112388088Y-61211368D01*
X112703967Y-61274200D01*
X113026033Y-61274200D01*
X113341912Y-61211368D01*
X113639463Y-61088118D01*
X113907252Y-60909187D01*
X114134987Y-60681452D01*
X114313918Y-60413663D01*
X114437168Y-60116112D01*
X114500000Y-59800233D01*
X114500000Y-59478167D01*
X114437168Y-59162288D01*
X114313918Y-58864737D01*
X114134987Y-58596948D01*
X113907252Y-58369213D01*
X113639463Y-58190282D01*
X113341912Y-58067032D01*
X113026033Y-58004200D01*
X112703967Y-58004200D01*
X112388088Y-58067032D01*
X112090537Y-58190282D01*
X111822748Y-58369213D01*
X111595013Y-58596948D01*
X111416082Y-58864737D01*
X111292832Y-59162288D01*
X111230000Y-59478167D01*
X100710000Y-59478167D01*
X100710000Y-55034877D01*
X100713435Y-55000000D01*
X100699727Y-54860816D01*
X100659128Y-54726980D01*
X100593200Y-54603637D01*
X100504475Y-54495525D01*
X100396363Y-54406800D01*
X100273020Y-54340872D01*
X100139184Y-54300273D01*
X100110000Y-54297399D01*
X100110000Y-52779872D01*
X100765000Y-52779872D01*
X100765000Y-53220128D01*
X100850890Y-53651925D01*
X101019369Y-54058669D01*
X101263962Y-54424729D01*
X101575271Y-54736038D01*
X101941331Y-54980631D01*
X102348075Y-55149110D01*
X102779872Y-55235000D01*
X103220128Y-55235000D01*
X103651925Y-55149110D01*
X104058669Y-54980631D01*
X104424729Y-54736038D01*
X104736038Y-54424729D01*
X104980631Y-54058669D01*
X105149110Y-53651925D01*
X105235000Y-53220128D01*
X105235000Y-52829117D01*
X105265000Y-52829117D01*
X105265000Y-53170883D01*
X105331675Y-53506081D01*
X105462463Y-53821831D01*
X105652337Y-54105998D01*
X105894002Y-54347663D01*
X106178169Y-54537537D01*
X106493919Y-54668325D01*
X106829117Y-54735000D01*
X107170883Y-54735000D01*
X107506081Y-54668325D01*
X107821831Y-54537537D01*
X108105998Y-54347663D01*
X108303793Y-54149868D01*
X111755000Y-54149868D01*
X111755000Y-54511332D01*
X111825518Y-54865850D01*
X111963844Y-55199799D01*
X112164662Y-55500344D01*
X112420256Y-55755938D01*
X112720801Y-55956756D01*
X113054750Y-56095082D01*
X113409268Y-56165600D01*
X113770732Y-56165600D01*
X114125250Y-56095082D01*
X114459199Y-55956756D01*
X114759744Y-55755938D01*
X115015338Y-55500344D01*
X115216156Y-55199799D01*
X115354482Y-54865850D01*
X115425000Y-54511332D01*
X115425000Y-54238768D01*
X126555000Y-54238768D01*
X126555000Y-54600232D01*
X126625518Y-54954750D01*
X126763844Y-55288699D01*
X126964662Y-55589244D01*
X127220256Y-55844838D01*
X127520801Y-56045656D01*
X127854750Y-56183982D01*
X128209268Y-56254500D01*
X128570732Y-56254500D01*
X128925250Y-56183982D01*
X129259199Y-56045656D01*
X129559744Y-55844838D01*
X129815338Y-55589244D01*
X130016156Y-55288699D01*
X130154482Y-54954750D01*
X130225000Y-54600232D01*
X130225000Y-54238768D01*
X130154482Y-53884250D01*
X130016156Y-53550301D01*
X129815338Y-53249756D01*
X129559744Y-52994162D01*
X129312738Y-52829117D01*
X141265000Y-52829117D01*
X141265000Y-53170883D01*
X141331675Y-53506081D01*
X141462463Y-53821831D01*
X141652337Y-54105998D01*
X141894002Y-54347663D01*
X142178169Y-54537537D01*
X142493919Y-54668325D01*
X142829117Y-54735000D01*
X143170883Y-54735000D01*
X143506081Y-54668325D01*
X143821831Y-54537537D01*
X144105998Y-54347663D01*
X144347663Y-54105998D01*
X144537537Y-53821831D01*
X144668325Y-53506081D01*
X144735000Y-53170883D01*
X144735000Y-52829117D01*
X144725205Y-52779872D01*
X144765000Y-52779872D01*
X144765000Y-53220128D01*
X144850890Y-53651925D01*
X145019369Y-54058669D01*
X145263962Y-54424729D01*
X145575271Y-54736038D01*
X145941331Y-54980631D01*
X146348075Y-55149110D01*
X146779872Y-55235000D01*
X147220128Y-55235000D01*
X147651925Y-55149110D01*
X148058669Y-54980631D01*
X148424729Y-54736038D01*
X148736038Y-54424729D01*
X148980631Y-54058669D01*
X149149110Y-53651925D01*
X149235000Y-53220128D01*
X149235000Y-52779872D01*
X149149110Y-52348075D01*
X148980631Y-51941331D01*
X148736038Y-51575271D01*
X148424729Y-51263962D01*
X148058669Y-51019369D01*
X147651925Y-50850890D01*
X147220128Y-50765000D01*
X146779872Y-50765000D01*
X146348075Y-50850890D01*
X145941331Y-51019369D01*
X145575271Y-51263962D01*
X145263962Y-51575271D01*
X145019369Y-51941331D01*
X144850890Y-52348075D01*
X144765000Y-52779872D01*
X144725205Y-52779872D01*
X144668325Y-52493919D01*
X144537537Y-52178169D01*
X144347663Y-51894002D01*
X144105998Y-51652337D01*
X143821831Y-51462463D01*
X143506081Y-51331675D01*
X143170883Y-51265000D01*
X142829117Y-51265000D01*
X142493919Y-51331675D01*
X142178169Y-51462463D01*
X141894002Y-51652337D01*
X141652337Y-51894002D01*
X141462463Y-52178169D01*
X141331675Y-52493919D01*
X141265000Y-52829117D01*
X129312738Y-52829117D01*
X129259199Y-52793344D01*
X128925250Y-52655018D01*
X128570732Y-52584500D01*
X128209268Y-52584500D01*
X127854750Y-52655018D01*
X127520801Y-52793344D01*
X127220256Y-52994162D01*
X126964662Y-53249756D01*
X126763844Y-53550301D01*
X126625518Y-53884250D01*
X126555000Y-54238768D01*
X115425000Y-54238768D01*
X115425000Y-54149868D01*
X115354482Y-53795350D01*
X115216156Y-53461401D01*
X115015338Y-53160856D01*
X114759744Y-52905262D01*
X114459199Y-52704444D01*
X114125250Y-52566118D01*
X113770732Y-52495600D01*
X113409268Y-52495600D01*
X113054750Y-52566118D01*
X112720801Y-52704444D01*
X112420256Y-52905262D01*
X112164662Y-53160856D01*
X111963844Y-53461401D01*
X111825518Y-53795350D01*
X111755000Y-54149868D01*
X108303793Y-54149868D01*
X108347663Y-54105998D01*
X108537537Y-53821831D01*
X108668325Y-53506081D01*
X108735000Y-53170883D01*
X108735000Y-52829117D01*
X108668325Y-52493919D01*
X108537537Y-52178169D01*
X108347663Y-51894002D01*
X108105998Y-51652337D01*
X107821831Y-51462463D01*
X107506081Y-51331675D01*
X107170883Y-51265000D01*
X106829117Y-51265000D01*
X106493919Y-51331675D01*
X106178169Y-51462463D01*
X105894002Y-51652337D01*
X105652337Y-51894002D01*
X105462463Y-52178169D01*
X105331675Y-52493919D01*
X105265000Y-52829117D01*
X105235000Y-52829117D01*
X105235000Y-52779872D01*
X105149110Y-52348075D01*
X104980631Y-51941331D01*
X104736038Y-51575271D01*
X104424729Y-51263962D01*
X104058669Y-51019369D01*
X103651925Y-50850890D01*
X103220128Y-50765000D01*
X102779872Y-50765000D01*
X102348075Y-50850890D01*
X101941331Y-51019369D01*
X101575271Y-51263962D01*
X101263962Y-51575271D01*
X101019369Y-51941331D01*
X100850890Y-52348075D01*
X100765000Y-52779872D01*
X100110000Y-52779872D01*
X100110000Y-52734720D01*
X100162665Y-52197597D01*
X100308574Y-51714326D01*
X100545570Y-51268601D01*
X100864631Y-50877393D01*
X101253593Y-50555616D01*
X101697654Y-50315514D01*
X102179898Y-50166235D01*
X102674969Y-50114200D01*
X107297813Y-50114200D01*
X107300273Y-50139184D01*
X107300273Y-50139184D01*
G37*
X107300273Y-50139184D02*
X107340872Y-50273020D01*
X107406800Y-50396363D01*
X107495525Y-50504475D01*
X107575128Y-50569803D01*
X107603637Y-50593200D01*
X107726980Y-50659128D01*
X107860816Y-50699727D01*
X108000000Y-50713435D01*
X108034877Y-50710000D01*
X141965123Y-50710000D01*
X142000000Y-50713435D01*
X142034877Y-50710000D01*
X142139184Y-50699727D01*
X142273020Y-50659128D01*
X142396363Y-50593200D01*
X142504475Y-50504475D01*
X142593200Y-50396363D01*
X142659128Y-50273020D01*
X142699727Y-50139184D01*
X142702187Y-50114200D01*
X147208106Y-50114200D01*
X147721830Y-50164571D01*
X148223785Y-50316120D01*
X148686737Y-50562276D01*
X149093069Y-50893673D01*
X149427287Y-51297672D01*
X149676672Y-51758898D01*
X149831722Y-52259785D01*
X149847300Y-52408001D01*
X149847300Y-54304373D01*
X149726980Y-54340872D01*
X149603637Y-54406800D01*
X149495525Y-54495525D01*
X149406800Y-54603637D01*
X149340872Y-54726980D01*
X149300273Y-54860816D01*
X149286565Y-55000000D01*
X149290000Y-55034877D01*
X149290001Y-56568377D01*
X136256544Y-63326466D01*
X136294885Y-63213238D01*
X136166431Y-63062000D01*
X135127000Y-63062000D01*
X135127000Y-63082000D01*
X134873000Y-63082000D01*
X134873000Y-63062000D01*
X133833569Y-63062000D01*
X133705115Y-63213238D01*
X133760446Y-63376641D01*
X133863698Y-63541698D01*
X133893845Y-63573714D01*
X133827040Y-63655116D01*
X133735576Y-63826233D01*
X133679253Y-64011906D01*
X133660235Y-64205000D01*
X133679253Y-64398094D01*
X133735576Y-64583767D01*
X133827040Y-64754884D01*
X133896893Y-64840000D01*
X133827040Y-64925116D01*
X133735576Y-65096233D01*
X133679253Y-65281906D01*
X133660235Y-65475000D01*
X133679253Y-65668094D01*
X133735576Y-65853767D01*
X133827040Y-66024884D01*
X133896893Y-66110000D01*
X133827040Y-66195116D01*
X133735576Y-66366233D01*
X133679253Y-66551906D01*
X133660235Y-66745000D01*
X133679253Y-66938094D01*
X133735576Y-67123767D01*
X133827040Y-67294884D01*
X133896893Y-67380000D01*
X133827040Y-67465116D01*
X133735576Y-67636233D01*
X133679253Y-67821906D01*
X133660235Y-68015000D01*
X133679253Y-68208094D01*
X133735576Y-68393767D01*
X133805722Y-68525000D01*
X126961522Y-68525000D01*
X126924199Y-68521324D01*
X126886876Y-68525000D01*
X126886867Y-68525000D01*
X126775214Y-68535997D01*
X126678129Y-68565447D01*
X126631953Y-68579454D01*
X126499923Y-68650026D01*
X126442107Y-68697475D01*
X126407072Y-68726228D01*
X126407072Y-68273200D01*
X126404664Y-68248750D01*
X126404664Y-68224191D01*
X126392404Y-68099710D01*
X126373282Y-68003577D01*
X126336973Y-67883881D01*
X126299464Y-67793325D01*
X126240498Y-67683008D01*
X126186042Y-67601509D01*
X126106690Y-67504818D01*
X126037382Y-67435510D01*
X125940691Y-67356158D01*
X125859192Y-67301702D01*
X125748875Y-67242736D01*
X125695000Y-67220421D01*
X125695000Y-66008687D01*
X125705000Y-66009672D01*
X126705000Y-66009672D01*
X126829482Y-65997412D01*
X126949180Y-65961102D01*
X127059494Y-65902137D01*
X127156185Y-65822785D01*
X127235537Y-65726094D01*
X127294502Y-65615780D01*
X127330812Y-65496082D01*
X127343072Y-65371600D01*
X127343072Y-64371600D01*
X127330812Y-64247118D01*
X127294502Y-64127420D01*
X127235537Y-64017106D01*
X127156185Y-63920415D01*
X127059494Y-63841063D01*
X126949180Y-63782098D01*
X126916000Y-63772033D01*
X126910546Y-63754053D01*
X126839974Y-63622024D01*
X126777808Y-63546274D01*
X126768799Y-63535296D01*
X126768795Y-63535292D01*
X126745001Y-63506299D01*
X126716008Y-63482505D01*
X125830000Y-62596499D01*
X125830000Y-61665000D01*
X133660235Y-61665000D01*
X133679253Y-61858094D01*
X133735576Y-62043767D01*
X133827040Y-62214884D01*
X133893845Y-62296286D01*
X133863698Y-62328302D01*
X133760446Y-62493359D01*
X133705115Y-62656762D01*
X133833569Y-62808000D01*
X134873000Y-62808000D01*
X134873000Y-62788000D01*
X135127000Y-62788000D01*
X135127000Y-62808000D01*
X136166431Y-62808000D01*
X136294885Y-62656762D01*
X136239554Y-62493359D01*
X136136302Y-62328302D01*
X136106155Y-62296286D01*
X136172960Y-62214884D01*
X136264424Y-62043767D01*
X136320747Y-61858094D01*
X136339765Y-61665000D01*
X136320747Y-61471906D01*
X136264424Y-61286233D01*
X136172960Y-61115116D01*
X136106155Y-61033714D01*
X136136302Y-61001698D01*
X136239554Y-60836641D01*
X136294885Y-60673238D01*
X136166431Y-60522000D01*
X135127000Y-60522000D01*
X135127000Y-60542000D01*
X134873000Y-60542000D01*
X134873000Y-60522000D01*
X133833569Y-60522000D01*
X133705115Y-60673238D01*
X133760446Y-60836641D01*
X133863698Y-61001698D01*
X133893845Y-61033714D01*
X133827040Y-61115116D01*
X133735576Y-61286233D01*
X133679253Y-61471906D01*
X133660235Y-61665000D01*
X125830000Y-61665000D01*
X125830000Y-61026287D01*
X125944482Y-61015012D01*
X126064180Y-60978702D01*
X126174494Y-60919737D01*
X126271185Y-60840385D01*
X126350537Y-60743694D01*
X126409502Y-60633380D01*
X126445812Y-60513682D01*
X126458072Y-60389200D01*
X126458072Y-59478167D01*
X127480000Y-59478167D01*
X127480000Y-59800233D01*
X127542832Y-60116112D01*
X127666082Y-60413663D01*
X127845013Y-60681452D01*
X128072748Y-60909187D01*
X128340537Y-61088118D01*
X128638088Y-61211368D01*
X128953967Y-61274200D01*
X129276033Y-61274200D01*
X129591912Y-61211368D01*
X129889463Y-61088118D01*
X130157252Y-60909187D01*
X130384987Y-60681452D01*
X130563918Y-60413663D01*
X130687168Y-60116112D01*
X130750000Y-59800233D01*
X130750000Y-59478167D01*
X130687168Y-59162288D01*
X130671723Y-59125000D01*
X133660235Y-59125000D01*
X133679253Y-59318094D01*
X133735576Y-59503767D01*
X133827040Y-59674884D01*
X133893845Y-59756286D01*
X133863698Y-59788302D01*
X133760446Y-59953359D01*
X133705115Y-60116762D01*
X133833569Y-60268000D01*
X134873000Y-60268000D01*
X134873000Y-60248000D01*
X135127000Y-60248000D01*
X135127000Y-60268000D01*
X136166431Y-60268000D01*
X136294885Y-60116762D01*
X136239554Y-59953359D01*
X136136302Y-59788302D01*
X136106155Y-59756286D01*
X136172960Y-59674884D01*
X136264424Y-59503767D01*
X136320747Y-59318094D01*
X136339765Y-59125000D01*
X136320747Y-58931906D01*
X136264424Y-58746233D01*
X136172960Y-58575116D01*
X136106155Y-58493714D01*
X136136302Y-58461698D01*
X136239554Y-58296641D01*
X136294885Y-58133238D01*
X136166431Y-57982000D01*
X135127000Y-57982000D01*
X135127000Y-58002000D01*
X134873000Y-58002000D01*
X134873000Y-57982000D01*
X133833569Y-57982000D01*
X133705115Y-58133238D01*
X133760446Y-58296641D01*
X133863698Y-58461698D01*
X133893845Y-58493714D01*
X133827040Y-58575116D01*
X133735576Y-58746233D01*
X133679253Y-58931906D01*
X133660235Y-59125000D01*
X130671723Y-59125000D01*
X130563918Y-58864737D01*
X130384987Y-58596948D01*
X130157252Y-58369213D01*
X129889463Y-58190282D01*
X129591912Y-58067032D01*
X129276033Y-58004200D01*
X128953967Y-58004200D01*
X128638088Y-58067032D01*
X128340537Y-58190282D01*
X128072748Y-58369213D01*
X127845013Y-58596948D01*
X127666082Y-58864737D01*
X127542832Y-59162288D01*
X127480000Y-59478167D01*
X126458072Y-59478167D01*
X126458072Y-58889200D01*
X126445812Y-58764718D01*
X126409502Y-58645020D01*
X126350537Y-58534706D01*
X126271185Y-58438015D01*
X126174494Y-58358663D01*
X126064180Y-58299698D01*
X125944482Y-58263388D01*
X125820000Y-58251128D01*
X124818951Y-58251128D01*
X124932886Y-58174999D01*
X125125799Y-57982086D01*
X125277371Y-57755243D01*
X125381775Y-57503189D01*
X125435000Y-57235611D01*
X125435000Y-56962789D01*
X125381775Y-56695211D01*
X125336125Y-56585000D01*
X133660235Y-56585000D01*
X133679253Y-56778094D01*
X133735576Y-56963767D01*
X133827040Y-57134884D01*
X133893845Y-57216286D01*
X133863698Y-57248302D01*
X133760446Y-57413359D01*
X133705115Y-57576762D01*
X133833569Y-57728000D01*
X134873000Y-57728000D01*
X134873000Y-57708000D01*
X135127000Y-57708000D01*
X135127000Y-57728000D01*
X136166431Y-57728000D01*
X136294885Y-57576762D01*
X136239554Y-57413359D01*
X136136302Y-57248302D01*
X136106155Y-57216286D01*
X136172960Y-57134884D01*
X136264424Y-56963767D01*
X136320747Y-56778094D01*
X136339765Y-56585000D01*
X136320747Y-56391906D01*
X136264424Y-56206233D01*
X136172960Y-56035116D01*
X136049870Y-55885130D01*
X135899884Y-55762040D01*
X135728767Y-55670576D01*
X135543094Y-55614253D01*
X135398380Y-55600000D01*
X134601620Y-55600000D01*
X134456906Y-55614253D01*
X134271233Y-55670576D01*
X134100116Y-55762040D01*
X133950130Y-55885130D01*
X133827040Y-56035116D01*
X133735576Y-56206233D01*
X133679253Y-56391906D01*
X133660235Y-56585000D01*
X125336125Y-56585000D01*
X125277371Y-56443157D01*
X125125799Y-56216314D01*
X124932886Y-56023401D01*
X124706043Y-55871829D01*
X124453989Y-55767425D01*
X124186411Y-55714200D01*
X123913589Y-55714200D01*
X123646011Y-55767425D01*
X123393957Y-55871829D01*
X123167114Y-56023401D01*
X123030000Y-56160515D01*
X122892886Y-56023401D01*
X122666043Y-55871829D01*
X122413989Y-55767425D01*
X122146411Y-55714200D01*
X121873589Y-55714200D01*
X121606011Y-55767425D01*
X121353957Y-55871829D01*
X121127114Y-56023401D01*
X120990000Y-56160515D01*
X120852886Y-56023401D01*
X120626043Y-55871829D01*
X120373989Y-55767425D01*
X120106411Y-55714200D01*
X119833589Y-55714200D01*
X119566011Y-55767425D01*
X119313957Y-55871829D01*
X119087114Y-56023401D01*
X118950000Y-56160515D01*
X118812886Y-56023401D01*
X118586043Y-55871829D01*
X118333989Y-55767425D01*
X118066411Y-55714200D01*
X117793589Y-55714200D01*
X117526011Y-55767425D01*
X117273957Y-55871829D01*
X117047114Y-56023401D01*
X116854201Y-56216314D01*
X116702629Y-56443157D01*
X116598225Y-56695211D01*
X116545000Y-56962789D01*
X116545000Y-57235611D01*
X116598225Y-57503189D01*
X116702629Y-57755243D01*
X116854201Y-57982086D01*
X117047114Y-58174999D01*
X117273957Y-58326571D01*
X117518808Y-58427991D01*
X117325498Y-58621301D01*
X117296500Y-58645099D01*
X117272702Y-58674097D01*
X117272701Y-58674098D01*
X117201526Y-58760824D01*
X117130954Y-58892854D01*
X117087498Y-59036115D01*
X117072824Y-59185100D01*
X117076501Y-59222432D01*
X117076500Y-60069477D01*
X117072824Y-60106800D01*
X117076500Y-60144122D01*
X117076500Y-60144132D01*
X117087497Y-60255785D01*
X117126512Y-60384401D01*
X117130954Y-60399046D01*
X117201526Y-60531076D01*
X117241371Y-60579626D01*
X117296499Y-60646801D01*
X117325502Y-60670603D01*
X117704075Y-61049177D01*
X117614495Y-61183244D01*
X117536474Y-61371602D01*
X117496700Y-61571561D01*
X117496700Y-61775439D01*
X117536474Y-61975398D01*
X117614495Y-62163756D01*
X117727763Y-62333274D01*
X117825000Y-62430511D01*
X117825001Y-63857239D01*
X117751447Y-63817924D01*
X117537499Y-63753023D01*
X117370752Y-63736600D01*
X117259248Y-63736600D01*
X117092501Y-63753023D01*
X116878553Y-63817924D01*
X116681377Y-63923316D01*
X116508551Y-64065151D01*
X116366716Y-64237977D01*
X116261324Y-64435153D01*
X116196423Y-64649101D01*
X116174509Y-64871600D01*
X116196423Y-65094099D01*
X116261324Y-65308047D01*
X116366716Y-65505223D01*
X116508551Y-65678049D01*
X116681377Y-65819884D01*
X116878553Y-65925276D01*
X117092501Y-65990177D01*
X117259248Y-66006600D01*
X117370752Y-66006600D01*
X117537499Y-65990177D01*
X117751447Y-65925276D01*
X117948623Y-65819884D01*
X117950000Y-65818754D01*
X117951377Y-65819884D01*
X118148553Y-65925276D01*
X118362501Y-65990177D01*
X118529248Y-66006600D01*
X118640752Y-66006600D01*
X118807499Y-65990177D01*
X119021447Y-65925276D01*
X119095001Y-65885961D01*
X119095000Y-67374466D01*
X119020618Y-67435510D01*
X118951310Y-67504818D01*
X118871958Y-67601509D01*
X118817502Y-67683008D01*
X118758536Y-67793325D01*
X118721027Y-67883881D01*
X118684718Y-68003577D01*
X118665596Y-68099710D01*
X118653336Y-68224191D01*
X118653336Y-68248750D01*
X118650928Y-68273200D01*
X118650928Y-68773200D01*
X118663188Y-68897682D01*
X118670929Y-68923200D01*
X118663188Y-68948718D01*
X118650928Y-69073200D01*
X118650928Y-69573200D01*
X118653336Y-69597650D01*
X118653336Y-69622209D01*
X118665596Y-69746690D01*
X118684718Y-69842823D01*
X118721027Y-69962519D01*
X118758536Y-70053075D01*
X118817502Y-70163392D01*
X118871958Y-70244891D01*
X118951310Y-70341582D01*
X119020618Y-70410890D01*
X119117309Y-70490242D01*
X119198808Y-70544698D01*
X119309125Y-70603664D01*
X119399681Y-70641173D01*
X119519377Y-70677482D01*
X119615510Y-70696604D01*
X119739000Y-70708766D01*
X119739001Y-70968631D01*
X119692551Y-71006751D01*
X119654431Y-71053200D01*
X110466822Y-71053200D01*
X110429499Y-71049524D01*
X110392176Y-71053200D01*
X110392167Y-71053200D01*
X110280514Y-71064197D01*
X110137253Y-71107654D01*
X110005224Y-71178226D01*
X109889499Y-71273199D01*
X109865701Y-71302197D01*
X104416903Y-76750996D01*
X104387899Y-76774799D01*
X104332771Y-76841974D01*
X104292926Y-76890524D01*
X104237645Y-76993947D01*
X104222354Y-77022554D01*
X104178897Y-77165815D01*
X104167900Y-77277468D01*
X104167900Y-77277478D01*
X104164224Y-77314800D01*
X104167900Y-77352123D01*
X104167901Y-78494768D01*
X104164224Y-78532100D01*
X104167901Y-78569433D01*
X104178898Y-78681086D01*
X104183421Y-78695997D01*
X104222354Y-78824346D01*
X104292926Y-78956376D01*
X104362338Y-79040954D01*
X104387900Y-79072101D01*
X104416897Y-79095899D01*
X104615928Y-79294930D01*
X104615928Y-79551950D01*
X104632392Y-79719108D01*
X104681150Y-79879842D01*
X104760329Y-80027975D01*
X104866885Y-80157815D01*
X104945928Y-80222683D01*
X104816885Y-80328585D01*
X104710329Y-80458425D01*
X104631150Y-80606558D01*
X104582392Y-80767292D01*
X104565928Y-80934450D01*
X104565928Y-81371950D01*
X104582392Y-81539108D01*
X104631150Y-81699842D01*
X104710329Y-81847975D01*
X104728100Y-81869630D01*
X104673463Y-81936206D01*
X104614498Y-82046520D01*
X104578188Y-82166218D01*
X104565928Y-82290700D01*
X104569000Y-82442450D01*
X104727750Y-82601200D01*
X105552000Y-82601200D01*
X105552000Y-82581200D01*
X105806000Y-82581200D01*
X105806000Y-82601200D01*
X105826000Y-82601200D01*
X105826000Y-82855200D01*
X105806000Y-82855200D01*
X105806000Y-83641950D01*
X105964750Y-83800700D01*
X106154000Y-83803772D01*
X106278482Y-83791512D01*
X106398180Y-83755202D01*
X106508494Y-83696237D01*
X106605185Y-83616885D01*
X106684537Y-83520194D01*
X106743502Y-83409880D01*
X106779812Y-83290182D01*
X106792072Y-83165700D01*
X106789000Y-83013950D01*
X106695467Y-82920417D01*
X106721022Y-82917900D01*
X108141556Y-82917900D01*
X108227506Y-82988437D01*
X108337820Y-83047402D01*
X108457518Y-83083712D01*
X108582000Y-83095972D01*
X110132000Y-83095972D01*
X110256482Y-83083712D01*
X110376180Y-83047402D01*
X110486494Y-82988437D01*
X110572444Y-82917900D01*
X110613578Y-82917900D01*
X110650900Y-82921576D01*
X110688222Y-82917900D01*
X110688233Y-82917900D01*
X110799886Y-82906903D01*
X110943147Y-82863446D01*
X111075176Y-82792874D01*
X111190901Y-82697901D01*
X111214704Y-82668897D01*
X113349197Y-80534405D01*
X113343928Y-80587900D01*
X113343928Y-81187900D01*
X113356188Y-81312382D01*
X113392498Y-81432080D01*
X113441043Y-81522900D01*
X113392498Y-81613720D01*
X113356188Y-81733418D01*
X113343928Y-81857900D01*
X113343928Y-82457900D01*
X113356188Y-82582382D01*
X113392498Y-82702080D01*
X113451463Y-82812394D01*
X113530815Y-82909085D01*
X113627506Y-82988437D01*
X113737820Y-83047402D01*
X113857518Y-83083712D01*
X113982000Y-83095972D01*
X115532000Y-83095972D01*
X115656482Y-83083712D01*
X115776180Y-83047402D01*
X115886494Y-82988437D01*
X115972444Y-82917900D01*
X117180466Y-82917900D01*
X117228463Y-83007694D01*
X117307815Y-83104385D01*
X117404506Y-83183737D01*
X117514820Y-83242702D01*
X117634518Y-83279012D01*
X117759000Y-83291272D01*
X118759000Y-83291272D01*
X118883482Y-83279012D01*
X119003180Y-83242702D01*
X119065623Y-83209325D01*
X120070501Y-84214203D01*
X120094299Y-84243201D01*
X120123297Y-84266999D01*
X120210023Y-84338174D01*
X120342053Y-84408746D01*
X120485314Y-84452203D01*
X120596967Y-84463200D01*
X120596977Y-84463200D01*
X120634299Y-84466876D01*
X120671622Y-84463200D01*
X121944638Y-84463200D01*
X121987502Y-84543392D01*
X122041958Y-84624891D01*
X122121310Y-84721582D01*
X122190618Y-84790890D01*
X122287309Y-84870242D01*
X122368808Y-84924698D01*
X122479125Y-84983664D01*
X122569681Y-85021173D01*
X122689377Y-85057482D01*
X122785510Y-85076604D01*
X122909991Y-85088864D01*
X122934550Y-85088864D01*
X122959000Y-85091272D01*
X123459000Y-85091272D01*
X123583482Y-85079012D01*
X123609000Y-85071271D01*
X123634518Y-85079012D01*
X123759000Y-85091272D01*
X124259000Y-85091272D01*
X124263616Y-85090817D01*
X133802301Y-94629503D01*
X133826099Y-94658501D01*
X133855097Y-94682299D01*
X133941823Y-94753474D01*
X134073853Y-94824046D01*
X134217114Y-94867503D01*
X134328767Y-94878500D01*
X134328777Y-94878500D01*
X134366100Y-94882176D01*
X134403423Y-94878500D01*
X135971278Y-94878500D01*
X136008600Y-94882176D01*
X136045922Y-94878500D01*
X136045933Y-94878500D01*
X136157586Y-94867503D01*
X136300847Y-94824046D01*
X136432876Y-94753474D01*
X136548601Y-94658501D01*
X136572403Y-94629498D01*
X137016902Y-94185000D01*
X137045901Y-94161201D01*
X137140874Y-94045476D01*
X137211446Y-93913447D01*
X137254903Y-93770186D01*
X137265900Y-93658533D01*
X137265900Y-93658524D01*
X137269576Y-93621201D01*
X137265900Y-93583878D01*
X137265900Y-88177722D01*
X137269576Y-88140399D01*
X137265900Y-88103076D01*
X137265900Y-88103067D01*
X137254903Y-87991414D01*
X137211446Y-87848153D01*
X137140875Y-87716125D01*
X137140874Y-87716123D01*
X137094650Y-87659800D01*
X137045901Y-87600399D01*
X137016898Y-87576597D01*
X136785300Y-87344999D01*
X136785300Y-86947704D01*
X149265000Y-93418660D01*
X149265001Y-95036105D01*
X149275636Y-95144085D01*
X149317664Y-95282633D01*
X149385914Y-95410320D01*
X149477763Y-95522238D01*
X149589681Y-95614087D01*
X149717368Y-95682337D01*
X149847300Y-95721751D01*
X149847300Y-97700771D01*
X149837335Y-97802403D01*
X149691427Y-98285673D01*
X149454429Y-98731402D01*
X149135371Y-99122604D01*
X148746407Y-99444384D01*
X148302348Y-99684485D01*
X147820102Y-99833765D01*
X147285071Y-99890000D01*
X142702601Y-99890000D01*
X142699727Y-99860816D01*
X142659128Y-99726980D01*
X142593200Y-99603637D01*
X142504475Y-99495525D01*
X142396363Y-99406800D01*
X142273020Y-99340872D01*
X142139184Y-99300273D01*
X142034877Y-99290000D01*
X142000000Y-99286565D01*
X141965123Y-99290000D01*
X108034877Y-99290000D01*
X108000000Y-99286565D01*
X107965123Y-99290000D01*
X107860816Y-99300273D01*
X107726980Y-99340872D01*
X107603637Y-99406800D01*
X107495525Y-99495525D01*
X107406800Y-99603637D01*
X107340872Y-99726980D01*
X107300273Y-99860816D01*
X107297399Y-99890000D01*
X102834720Y-99890000D01*
X102278169Y-99835429D01*
X101776219Y-99683881D01*
X101313262Y-99437723D01*
X100906932Y-99106329D01*
X100572713Y-98702328D01*
X100323326Y-98241097D01*
X100168278Y-97740215D01*
X100119211Y-97273367D01*
X100117965Y-96779872D01*
X100765000Y-96779872D01*
X100765000Y-97220128D01*
X100850890Y-97651925D01*
X101019369Y-98058669D01*
X101263962Y-98424729D01*
X101575271Y-98736038D01*
X101941331Y-98980631D01*
X102348075Y-99149110D01*
X102779872Y-99235000D01*
X103220128Y-99235000D01*
X103651925Y-99149110D01*
X104058669Y-98980631D01*
X104424729Y-98736038D01*
X104736038Y-98424729D01*
X104980631Y-98058669D01*
X105149110Y-97651925D01*
X105235000Y-97220128D01*
X105235000Y-96829117D01*
X105265000Y-96829117D01*
X105265000Y-97170883D01*
X105331675Y-97506081D01*
X105462463Y-97821831D01*
X105652337Y-98105998D01*
X105894002Y-98347663D01*
X106178169Y-98537537D01*
X106493919Y-98668325D01*
X106829117Y-98735000D01*
X107170883Y-98735000D01*
X107506081Y-98668325D01*
X107821831Y-98537537D01*
X108105998Y-98347663D01*
X108347663Y-98105998D01*
X108537537Y-97821831D01*
X108668325Y-97506081D01*
X108735000Y-97170883D01*
X108735000Y-96829117D01*
X141265000Y-96829117D01*
X141265000Y-97170883D01*
X141331675Y-97506081D01*
X141462463Y-97821831D01*
X141652337Y-98105998D01*
X141894002Y-98347663D01*
X142178169Y-98537537D01*
X142493919Y-98668325D01*
X142829117Y-98735000D01*
X143170883Y-98735000D01*
X143506081Y-98668325D01*
X143821831Y-98537537D01*
X144105998Y-98347663D01*
X144347663Y-98105998D01*
X144537537Y-97821831D01*
X144668325Y-97506081D01*
X144735000Y-97170883D01*
X144735000Y-96829117D01*
X144725205Y-96779872D01*
X144765000Y-96779872D01*
X144765000Y-97220128D01*
X144850890Y-97651925D01*
X145019369Y-98058669D01*
X145263962Y-98424729D01*
X145575271Y-98736038D01*
X145941331Y-98980631D01*
X146348075Y-99149110D01*
X146779872Y-99235000D01*
X147220128Y-99235000D01*
X147651925Y-99149110D01*
X148058669Y-98980631D01*
X148424729Y-98736038D01*
X148736038Y-98424729D01*
X148980631Y-98058669D01*
X149149110Y-97651925D01*
X149235000Y-97220128D01*
X149235000Y-96779872D01*
X149149110Y-96348075D01*
X148980631Y-95941331D01*
X148736038Y-95575271D01*
X148424729Y-95263962D01*
X148058669Y-95019369D01*
X147651925Y-94850890D01*
X147220128Y-94765000D01*
X146779872Y-94765000D01*
X146348075Y-94850890D01*
X145941331Y-95019369D01*
X145575271Y-95263962D01*
X145263962Y-95575271D01*
X145019369Y-95941331D01*
X144850890Y-96348075D01*
X144765000Y-96779872D01*
X144725205Y-96779872D01*
X144668325Y-96493919D01*
X144537537Y-96178169D01*
X144347663Y-95894002D01*
X144105998Y-95652337D01*
X143821831Y-95462463D01*
X143506081Y-95331675D01*
X143170883Y-95265000D01*
X142829117Y-95265000D01*
X142493919Y-95331675D01*
X142178169Y-95462463D01*
X141894002Y-95652337D01*
X141652337Y-95894002D01*
X141462463Y-96178169D01*
X141331675Y-96493919D01*
X141265000Y-96829117D01*
X108735000Y-96829117D01*
X108668325Y-96493919D01*
X108537537Y-96178169D01*
X108347663Y-95894002D01*
X108105998Y-95652337D01*
X107821831Y-95462463D01*
X107506081Y-95331675D01*
X107170883Y-95265000D01*
X106829117Y-95265000D01*
X106493919Y-95331675D01*
X106178169Y-95462463D01*
X105894002Y-95652337D01*
X105652337Y-95894002D01*
X105462463Y-96178169D01*
X105331675Y-96493919D01*
X105265000Y-96829117D01*
X105235000Y-96829117D01*
X105235000Y-96779872D01*
X105149110Y-96348075D01*
X104980631Y-95941331D01*
X104736038Y-95575271D01*
X104424729Y-95263962D01*
X104058669Y-95019369D01*
X103651925Y-94850890D01*
X103220128Y-94765000D01*
X102779872Y-94765000D01*
X102348075Y-94850890D01*
X101941331Y-95019369D01*
X101575271Y-95263962D01*
X101263962Y-95575271D01*
X101019369Y-95941331D01*
X100850890Y-96348075D01*
X100765000Y-96779872D01*
X100117965Y-96779872D01*
X100115243Y-95702085D01*
X100139184Y-95699727D01*
X100273020Y-95659128D01*
X100396363Y-95593200D01*
X100504475Y-95504475D01*
X100593200Y-95396363D01*
X100659128Y-95273020D01*
X100699727Y-95139184D01*
X100713435Y-95000000D01*
X100710000Y-94965123D01*
X100710000Y-83165700D01*
X104565928Y-83165700D01*
X104578188Y-83290182D01*
X104614498Y-83409880D01*
X104673463Y-83520194D01*
X104752815Y-83616885D01*
X104849506Y-83696237D01*
X104959820Y-83755202D01*
X105079518Y-83791512D01*
X105204000Y-83803772D01*
X105393250Y-83800700D01*
X105552000Y-83641950D01*
X105552000Y-82855200D01*
X104727750Y-82855200D01*
X104569000Y-83013950D01*
X104565928Y-83165700D01*
X100710000Y-83165700D01*
X100710000Y-59478167D01*
X111230000Y-59478167D01*
X111230000Y-59800233D01*
X111292832Y-60116112D01*
X111416082Y-60413663D01*
X111595013Y-60681452D01*
X111822748Y-60909187D01*
X112090537Y-61088118D01*
X112388088Y-61211368D01*
X112703967Y-61274200D01*
X113026033Y-61274200D01*
X113341912Y-61211368D01*
X113639463Y-61088118D01*
X113907252Y-60909187D01*
X114134987Y-60681452D01*
X114313918Y-60413663D01*
X114437168Y-60116112D01*
X114500000Y-59800233D01*
X114500000Y-59478167D01*
X114437168Y-59162288D01*
X114313918Y-58864737D01*
X114134987Y-58596948D01*
X113907252Y-58369213D01*
X113639463Y-58190282D01*
X113341912Y-58067032D01*
X113026033Y-58004200D01*
X112703967Y-58004200D01*
X112388088Y-58067032D01*
X112090537Y-58190282D01*
X111822748Y-58369213D01*
X111595013Y-58596948D01*
X111416082Y-58864737D01*
X111292832Y-59162288D01*
X111230000Y-59478167D01*
X100710000Y-59478167D01*
X100710000Y-55034877D01*
X100713435Y-55000000D01*
X100699727Y-54860816D01*
X100659128Y-54726980D01*
X100593200Y-54603637D01*
X100504475Y-54495525D01*
X100396363Y-54406800D01*
X100273020Y-54340872D01*
X100139184Y-54300273D01*
X100110000Y-54297399D01*
X100110000Y-52779872D01*
X100765000Y-52779872D01*
X100765000Y-53220128D01*
X100850890Y-53651925D01*
X101019369Y-54058669D01*
X101263962Y-54424729D01*
X101575271Y-54736038D01*
X101941331Y-54980631D01*
X102348075Y-55149110D01*
X102779872Y-55235000D01*
X103220128Y-55235000D01*
X103651925Y-55149110D01*
X104058669Y-54980631D01*
X104424729Y-54736038D01*
X104736038Y-54424729D01*
X104980631Y-54058669D01*
X105149110Y-53651925D01*
X105235000Y-53220128D01*
X105235000Y-52829117D01*
X105265000Y-52829117D01*
X105265000Y-53170883D01*
X105331675Y-53506081D01*
X105462463Y-53821831D01*
X105652337Y-54105998D01*
X105894002Y-54347663D01*
X106178169Y-54537537D01*
X106493919Y-54668325D01*
X106829117Y-54735000D01*
X107170883Y-54735000D01*
X107506081Y-54668325D01*
X107821831Y-54537537D01*
X108105998Y-54347663D01*
X108303793Y-54149868D01*
X111755000Y-54149868D01*
X111755000Y-54511332D01*
X111825518Y-54865850D01*
X111963844Y-55199799D01*
X112164662Y-55500344D01*
X112420256Y-55755938D01*
X112720801Y-55956756D01*
X113054750Y-56095082D01*
X113409268Y-56165600D01*
X113770732Y-56165600D01*
X114125250Y-56095082D01*
X114459199Y-55956756D01*
X114759744Y-55755938D01*
X115015338Y-55500344D01*
X115216156Y-55199799D01*
X115354482Y-54865850D01*
X115425000Y-54511332D01*
X115425000Y-54238768D01*
X126555000Y-54238768D01*
X126555000Y-54600232D01*
X126625518Y-54954750D01*
X126763844Y-55288699D01*
X126964662Y-55589244D01*
X127220256Y-55844838D01*
X127520801Y-56045656D01*
X127854750Y-56183982D01*
X128209268Y-56254500D01*
X128570732Y-56254500D01*
X128925250Y-56183982D01*
X129259199Y-56045656D01*
X129559744Y-55844838D01*
X129815338Y-55589244D01*
X130016156Y-55288699D01*
X130154482Y-54954750D01*
X130225000Y-54600232D01*
X130225000Y-54238768D01*
X130154482Y-53884250D01*
X130016156Y-53550301D01*
X129815338Y-53249756D01*
X129559744Y-52994162D01*
X129312738Y-52829117D01*
X141265000Y-52829117D01*
X141265000Y-53170883D01*
X141331675Y-53506081D01*
X141462463Y-53821831D01*
X141652337Y-54105998D01*
X141894002Y-54347663D01*
X142178169Y-54537537D01*
X142493919Y-54668325D01*
X142829117Y-54735000D01*
X143170883Y-54735000D01*
X143506081Y-54668325D01*
X143821831Y-54537537D01*
X144105998Y-54347663D01*
X144347663Y-54105998D01*
X144537537Y-53821831D01*
X144668325Y-53506081D01*
X144735000Y-53170883D01*
X144735000Y-52829117D01*
X144725205Y-52779872D01*
X144765000Y-52779872D01*
X144765000Y-53220128D01*
X144850890Y-53651925D01*
X145019369Y-54058669D01*
X145263962Y-54424729D01*
X145575271Y-54736038D01*
X145941331Y-54980631D01*
X146348075Y-55149110D01*
X146779872Y-55235000D01*
X147220128Y-55235000D01*
X147651925Y-55149110D01*
X148058669Y-54980631D01*
X148424729Y-54736038D01*
X148736038Y-54424729D01*
X148980631Y-54058669D01*
X149149110Y-53651925D01*
X149235000Y-53220128D01*
X149235000Y-52779872D01*
X149149110Y-52348075D01*
X148980631Y-51941331D01*
X148736038Y-51575271D01*
X148424729Y-51263962D01*
X148058669Y-51019369D01*
X147651925Y-50850890D01*
X147220128Y-50765000D01*
X146779872Y-50765000D01*
X146348075Y-50850890D01*
X145941331Y-51019369D01*
X145575271Y-51263962D01*
X145263962Y-51575271D01*
X145019369Y-51941331D01*
X144850890Y-52348075D01*
X144765000Y-52779872D01*
X144725205Y-52779872D01*
X144668325Y-52493919D01*
X144537537Y-52178169D01*
X144347663Y-51894002D01*
X144105998Y-51652337D01*
X143821831Y-51462463D01*
X143506081Y-51331675D01*
X143170883Y-51265000D01*
X142829117Y-51265000D01*
X142493919Y-51331675D01*
X142178169Y-51462463D01*
X141894002Y-51652337D01*
X141652337Y-51894002D01*
X141462463Y-52178169D01*
X141331675Y-52493919D01*
X141265000Y-52829117D01*
X129312738Y-52829117D01*
X129259199Y-52793344D01*
X128925250Y-52655018D01*
X128570732Y-52584500D01*
X128209268Y-52584500D01*
X127854750Y-52655018D01*
X127520801Y-52793344D01*
X127220256Y-52994162D01*
X126964662Y-53249756D01*
X126763844Y-53550301D01*
X126625518Y-53884250D01*
X126555000Y-54238768D01*
X115425000Y-54238768D01*
X115425000Y-54149868D01*
X115354482Y-53795350D01*
X115216156Y-53461401D01*
X115015338Y-53160856D01*
X114759744Y-52905262D01*
X114459199Y-52704444D01*
X114125250Y-52566118D01*
X113770732Y-52495600D01*
X113409268Y-52495600D01*
X113054750Y-52566118D01*
X112720801Y-52704444D01*
X112420256Y-52905262D01*
X112164662Y-53160856D01*
X111963844Y-53461401D01*
X111825518Y-53795350D01*
X111755000Y-54149868D01*
X108303793Y-54149868D01*
X108347663Y-54105998D01*
X108537537Y-53821831D01*
X108668325Y-53506081D01*
X108735000Y-53170883D01*
X108735000Y-52829117D01*
X108668325Y-52493919D01*
X108537537Y-52178169D01*
X108347663Y-51894002D01*
X108105998Y-51652337D01*
X107821831Y-51462463D01*
X107506081Y-51331675D01*
X107170883Y-51265000D01*
X106829117Y-51265000D01*
X106493919Y-51331675D01*
X106178169Y-51462463D01*
X105894002Y-51652337D01*
X105652337Y-51894002D01*
X105462463Y-52178169D01*
X105331675Y-52493919D01*
X105265000Y-52829117D01*
X105235000Y-52829117D01*
X105235000Y-52779872D01*
X105149110Y-52348075D01*
X104980631Y-51941331D01*
X104736038Y-51575271D01*
X104424729Y-51263962D01*
X104058669Y-51019369D01*
X103651925Y-50850890D01*
X103220128Y-50765000D01*
X102779872Y-50765000D01*
X102348075Y-50850890D01*
X101941331Y-51019369D01*
X101575271Y-51263962D01*
X101263962Y-51575271D01*
X101019369Y-51941331D01*
X100850890Y-52348075D01*
X100765000Y-52779872D01*
X100110000Y-52779872D01*
X100110000Y-52734720D01*
X100162665Y-52197597D01*
X100308574Y-51714326D01*
X100545570Y-51268601D01*
X100864631Y-50877393D01*
X101253593Y-50555616D01*
X101697654Y-50315514D01*
X102179898Y-50166235D01*
X102674969Y-50114200D01*
X107297813Y-50114200D01*
X107300273Y-50139184D01*
G36*
X133735576Y-80336233D02*
G01*
X133679253Y-80521906D01*
X133660235Y-80715000D01*
X133679253Y-80908094D01*
X133735576Y-81093767D01*
X133827040Y-81264884D01*
X133896893Y-81350000D01*
X133827040Y-81435116D01*
X133735576Y-81606233D01*
X133679253Y-81791906D01*
X133660235Y-81985000D01*
X133679253Y-82178094D01*
X133735576Y-82363767D01*
X133827040Y-82534884D01*
X133896893Y-82620000D01*
X133827040Y-82705116D01*
X133735576Y-82876233D01*
X133679253Y-83061906D01*
X133660235Y-83255000D01*
X133679253Y-83448094D01*
X133735576Y-83633767D01*
X133827040Y-83804884D01*
X133896893Y-83890000D01*
X133827040Y-83975116D01*
X133735576Y-84146233D01*
X133679253Y-84331906D01*
X133660235Y-84525000D01*
X133679253Y-84718094D01*
X133735576Y-84903767D01*
X133827040Y-85074884D01*
X133896893Y-85160000D01*
X133827040Y-85245116D01*
X133735576Y-85416233D01*
X133679253Y-85601906D01*
X133660235Y-85795000D01*
X133679253Y-85988094D01*
X133735576Y-86173767D01*
X133827040Y-86344884D01*
X133896893Y-86430000D01*
X133827040Y-86515116D01*
X133735576Y-86686233D01*
X133679253Y-86871906D01*
X133660235Y-87065000D01*
X133679253Y-87258094D01*
X133735576Y-87443767D01*
X133827040Y-87614884D01*
X133896893Y-87700000D01*
X133827040Y-87785116D01*
X133735576Y-87956233D01*
X133679253Y-88141906D01*
X133660235Y-88335000D01*
X133679253Y-88528094D01*
X133735576Y-88713767D01*
X133827040Y-88884884D01*
X133896893Y-88970000D01*
X133827040Y-89055116D01*
X133735576Y-89226233D01*
X133679253Y-89411906D01*
X133660235Y-89605000D01*
X133679253Y-89798094D01*
X133735576Y-89983767D01*
X133827040Y-90154884D01*
X133896893Y-90240000D01*
X133827040Y-90325116D01*
X133735576Y-90496233D01*
X133679253Y-90681906D01*
X133660235Y-90875000D01*
X133679253Y-91068094D01*
X133735576Y-91253767D01*
X133827040Y-91424884D01*
X133896893Y-91510000D01*
X133827040Y-91595116D01*
X133735576Y-91766233D01*
X133679253Y-91951906D01*
X133660235Y-92145000D01*
X133679253Y-92338094D01*
X133687420Y-92365019D01*
X125388383Y-84065982D01*
X125394664Y-84002209D01*
X125394664Y-83977650D01*
X125397072Y-83953200D01*
X125397072Y-83453200D01*
X125394664Y-83428750D01*
X125394664Y-83404191D01*
X125382404Y-83279710D01*
X125363282Y-83183577D01*
X125326973Y-83063881D01*
X125289464Y-82973325D01*
X125230498Y-82863008D01*
X125176042Y-82781509D01*
X125096690Y-82684818D01*
X125027382Y-82615510D01*
X124930691Y-82536158D01*
X124849192Y-82481702D01*
X124814577Y-82463200D01*
X124849192Y-82444698D01*
X124930691Y-82390242D01*
X125027382Y-82310890D01*
X125096690Y-82241582D01*
X125176042Y-82144891D01*
X125230498Y-82063392D01*
X125289464Y-81953075D01*
X125326973Y-81862519D01*
X125363282Y-81742823D01*
X125382404Y-81646690D01*
X125394664Y-81522209D01*
X125394664Y-81497650D01*
X125397072Y-81473200D01*
X125397072Y-81159930D01*
X125481802Y-81075199D01*
X125510801Y-81051401D01*
X125605774Y-80935676D01*
X125676346Y-80803647D01*
X125719803Y-80660386D01*
X125730800Y-80548733D01*
X125730800Y-80548724D01*
X125734476Y-80511401D01*
X125730800Y-80474078D01*
X125730800Y-80205000D01*
X133805722Y-80205000D01*
X133735576Y-80336233D01*
X133735576Y-80336233D01*
G37*
X133735576Y-80336233D02*
X133679253Y-80521906D01*
X133660235Y-80715000D01*
X133679253Y-80908094D01*
X133735576Y-81093767D01*
X133827040Y-81264884D01*
X133896893Y-81350000D01*
X133827040Y-81435116D01*
X133735576Y-81606233D01*
X133679253Y-81791906D01*
X133660235Y-81985000D01*
X133679253Y-82178094D01*
X133735576Y-82363767D01*
X133827040Y-82534884D01*
X133896893Y-82620000D01*
X133827040Y-82705116D01*
X133735576Y-82876233D01*
X133679253Y-83061906D01*
X133660235Y-83255000D01*
X133679253Y-83448094D01*
X133735576Y-83633767D01*
X133827040Y-83804884D01*
X133896893Y-83890000D01*
X133827040Y-83975116D01*
X133735576Y-84146233D01*
X133679253Y-84331906D01*
X133660235Y-84525000D01*
X133679253Y-84718094D01*
X133735576Y-84903767D01*
X133827040Y-85074884D01*
X133896893Y-85160000D01*
X133827040Y-85245116D01*
X133735576Y-85416233D01*
X133679253Y-85601906D01*
X133660235Y-85795000D01*
X133679253Y-85988094D01*
X133735576Y-86173767D01*
X133827040Y-86344884D01*
X133896893Y-86430000D01*
X133827040Y-86515116D01*
X133735576Y-86686233D01*
X133679253Y-86871906D01*
X133660235Y-87065000D01*
X133679253Y-87258094D01*
X133735576Y-87443767D01*
X133827040Y-87614884D01*
X133896893Y-87700000D01*
X133827040Y-87785116D01*
X133735576Y-87956233D01*
X133679253Y-88141906D01*
X133660235Y-88335000D01*
X133679253Y-88528094D01*
X133735576Y-88713767D01*
X133827040Y-88884884D01*
X133896893Y-88970000D01*
X133827040Y-89055116D01*
X133735576Y-89226233D01*
X133679253Y-89411906D01*
X133660235Y-89605000D01*
X133679253Y-89798094D01*
X133735576Y-89983767D01*
X133827040Y-90154884D01*
X133896893Y-90240000D01*
X133827040Y-90325116D01*
X133735576Y-90496233D01*
X133679253Y-90681906D01*
X133660235Y-90875000D01*
X133679253Y-91068094D01*
X133735576Y-91253767D01*
X133827040Y-91424884D01*
X133896893Y-91510000D01*
X133827040Y-91595116D01*
X133735576Y-91766233D01*
X133679253Y-91951906D01*
X133660235Y-92145000D01*
X133679253Y-92338094D01*
X133687420Y-92365019D01*
X125388383Y-84065982D01*
X125394664Y-84002209D01*
X125394664Y-83977650D01*
X125397072Y-83953200D01*
X125397072Y-83453200D01*
X125394664Y-83428750D01*
X125394664Y-83404191D01*
X125382404Y-83279710D01*
X125363282Y-83183577D01*
X125326973Y-83063881D01*
X125289464Y-82973325D01*
X125230498Y-82863008D01*
X125176042Y-82781509D01*
X125096690Y-82684818D01*
X125027382Y-82615510D01*
X124930691Y-82536158D01*
X124849192Y-82481702D01*
X124814577Y-82463200D01*
X124849192Y-82444698D01*
X124930691Y-82390242D01*
X125027382Y-82310890D01*
X125096690Y-82241582D01*
X125176042Y-82144891D01*
X125230498Y-82063392D01*
X125289464Y-81953075D01*
X125326973Y-81862519D01*
X125363282Y-81742823D01*
X125382404Y-81646690D01*
X125394664Y-81522209D01*
X125394664Y-81497650D01*
X125397072Y-81473200D01*
X125397072Y-81159930D01*
X125481802Y-81075199D01*
X125510801Y-81051401D01*
X125605774Y-80935676D01*
X125676346Y-80803647D01*
X125719803Y-80660386D01*
X125730800Y-80548733D01*
X125730800Y-80548724D01*
X125734476Y-80511401D01*
X125730800Y-80474078D01*
X125730800Y-80205000D01*
X133805722Y-80205000D01*
X133735576Y-80336233D01*
G36*
X119692551Y-72619649D02*
G01*
X119799763Y-72707636D01*
X116565699Y-75941700D01*
X113410933Y-75941700D01*
X113373600Y-75938023D01*
X113336267Y-75941700D01*
X113224614Y-75952697D01*
X113081353Y-75996154D01*
X112949324Y-76066726D01*
X112833599Y-76161699D01*
X112809801Y-76190697D01*
X110767000Y-78233499D01*
X110767000Y-78220898D01*
X110608252Y-78220898D01*
X110767000Y-78062150D01*
X110770072Y-78047900D01*
X110757812Y-77923418D01*
X110721502Y-77803720D01*
X110662537Y-77693406D01*
X110583185Y-77596715D01*
X110486494Y-77517363D01*
X110376180Y-77458398D01*
X110256482Y-77422088D01*
X110132000Y-77409828D01*
X109642750Y-77412900D01*
X109484000Y-77571650D01*
X109484000Y-78220900D01*
X109504000Y-78220900D01*
X109504000Y-78474900D01*
X109484000Y-78474900D01*
X109484000Y-78494900D01*
X109230000Y-78494900D01*
X109230000Y-78474900D01*
X108105750Y-78474900D01*
X107947000Y-78633650D01*
X107943928Y-78647900D01*
X107956188Y-78772382D01*
X107992498Y-78892080D01*
X108041043Y-78982900D01*
X107992498Y-79073720D01*
X107956188Y-79193418D01*
X107943928Y-79317900D01*
X107943928Y-79917900D01*
X107956188Y-80042382D01*
X107982130Y-80127900D01*
X107598502Y-80127900D01*
X106842072Y-79371471D01*
X106842072Y-79114450D01*
X106825608Y-78947292D01*
X106776850Y-78786558D01*
X106697671Y-78638425D01*
X106621574Y-78545700D01*
X106697671Y-78452975D01*
X106776850Y-78304842D01*
X106825608Y-78144108D01*
X106835083Y-78047900D01*
X107943928Y-78047900D01*
X107947000Y-78062150D01*
X108105750Y-78220900D01*
X109230000Y-78220900D01*
X109230000Y-77571650D01*
X109071250Y-77412900D01*
X108582000Y-77409828D01*
X108457518Y-77422088D01*
X108337820Y-77458398D01*
X108227506Y-77517363D01*
X108130815Y-77596715D01*
X108051463Y-77693406D01*
X107992498Y-77803720D01*
X107956188Y-77923418D01*
X107943928Y-78047900D01*
X106835083Y-78047900D01*
X106842072Y-77976950D01*
X106842072Y-77719929D01*
X110516402Y-74045600D01*
X110720889Y-74045600D01*
X110764826Y-74089537D01*
X110934344Y-74202805D01*
X111122702Y-74280826D01*
X111322661Y-74320600D01*
X111526539Y-74320600D01*
X111726498Y-74280826D01*
X111914856Y-74202805D01*
X112084374Y-74089537D01*
X112228537Y-73945374D01*
X112341805Y-73775856D01*
X112419826Y-73587498D01*
X112459600Y-73387539D01*
X112459600Y-73183661D01*
X112419826Y-72983702D01*
X112341805Y-72795344D01*
X112228537Y-72625826D01*
X112175911Y-72573200D01*
X119654431Y-72573200D01*
X119692551Y-72619649D01*
X119692551Y-72619649D01*
G37*
X119692551Y-72619649D02*
X119799763Y-72707636D01*
X116565699Y-75941700D01*
X113410933Y-75941700D01*
X113373600Y-75938023D01*
X113336267Y-75941700D01*
X113224614Y-75952697D01*
X113081353Y-75996154D01*
X112949324Y-76066726D01*
X112833599Y-76161699D01*
X112809801Y-76190697D01*
X110767000Y-78233499D01*
X110767000Y-78220898D01*
X110608252Y-78220898D01*
X110767000Y-78062150D01*
X110770072Y-78047900D01*
X110757812Y-77923418D01*
X110721502Y-77803720D01*
X110662537Y-77693406D01*
X110583185Y-77596715D01*
X110486494Y-77517363D01*
X110376180Y-77458398D01*
X110256482Y-77422088D01*
X110132000Y-77409828D01*
X109642750Y-77412900D01*
X109484000Y-77571650D01*
X109484000Y-78220900D01*
X109504000Y-78220900D01*
X109504000Y-78474900D01*
X109484000Y-78474900D01*
X109484000Y-78494900D01*
X109230000Y-78494900D01*
X109230000Y-78474900D01*
X108105750Y-78474900D01*
X107947000Y-78633650D01*
X107943928Y-78647900D01*
X107956188Y-78772382D01*
X107992498Y-78892080D01*
X108041043Y-78982900D01*
X107992498Y-79073720D01*
X107956188Y-79193418D01*
X107943928Y-79317900D01*
X107943928Y-79917900D01*
X107956188Y-80042382D01*
X107982130Y-80127900D01*
X107598502Y-80127900D01*
X106842072Y-79371471D01*
X106842072Y-79114450D01*
X106825608Y-78947292D01*
X106776850Y-78786558D01*
X106697671Y-78638425D01*
X106621574Y-78545700D01*
X106697671Y-78452975D01*
X106776850Y-78304842D01*
X106825608Y-78144108D01*
X106835083Y-78047900D01*
X107943928Y-78047900D01*
X107947000Y-78062150D01*
X108105750Y-78220900D01*
X109230000Y-78220900D01*
X109230000Y-77571650D01*
X109071250Y-77412900D01*
X108582000Y-77409828D01*
X108457518Y-77422088D01*
X108337820Y-77458398D01*
X108227506Y-77517363D01*
X108130815Y-77596715D01*
X108051463Y-77693406D01*
X107992498Y-77803720D01*
X107956188Y-77923418D01*
X107943928Y-78047900D01*
X106835083Y-78047900D01*
X106842072Y-77976950D01*
X106842072Y-77719929D01*
X110516402Y-74045600D01*
X110720889Y-74045600D01*
X110764826Y-74089537D01*
X110934344Y-74202805D01*
X111122702Y-74280826D01*
X111322661Y-74320600D01*
X111526539Y-74320600D01*
X111726498Y-74280826D01*
X111914856Y-74202805D01*
X112084374Y-74089537D01*
X112228537Y-73945374D01*
X112341805Y-73775856D01*
X112419826Y-73587498D01*
X112459600Y-73387539D01*
X112459600Y-73183661D01*
X112419826Y-72983702D01*
X112341805Y-72795344D01*
X112228537Y-72625826D01*
X112175911Y-72573200D01*
X119654431Y-72573200D01*
X119692551Y-72619649D01*
G36*
X133735576Y-75256233D02*
G01*
X133679253Y-75441906D01*
X133660235Y-75635000D01*
X133679253Y-75828094D01*
X133735576Y-76013767D01*
X133827040Y-76184884D01*
X133896893Y-76270000D01*
X133827040Y-76355116D01*
X133735576Y-76526233D01*
X133679253Y-76711906D01*
X133660235Y-76905000D01*
X133679253Y-77098094D01*
X133735576Y-77283767D01*
X133827040Y-77454884D01*
X133896893Y-77540000D01*
X133827040Y-77625116D01*
X133735576Y-77796233D01*
X133679253Y-77981906D01*
X133660235Y-78175000D01*
X133679253Y-78368094D01*
X133735576Y-78553767D01*
X133805722Y-78685000D01*
X125397072Y-78685000D01*
X125397072Y-78483200D01*
X125394664Y-78458750D01*
X125394664Y-78434191D01*
X125382404Y-78309710D01*
X125363282Y-78213577D01*
X125326973Y-78093881D01*
X125289464Y-78003325D01*
X125230498Y-77893008D01*
X125176042Y-77811509D01*
X125096690Y-77714818D01*
X125027382Y-77645510D01*
X124930691Y-77566158D01*
X124849192Y-77511702D01*
X124795869Y-77483200D01*
X124849192Y-77454698D01*
X124930691Y-77400242D01*
X125027382Y-77320890D01*
X125096690Y-77251582D01*
X125176042Y-77154891D01*
X125230498Y-77073392D01*
X125289464Y-76963075D01*
X125326973Y-76872519D01*
X125363282Y-76752823D01*
X125382404Y-76656690D01*
X125394664Y-76532209D01*
X125394664Y-76507650D01*
X125397072Y-76483200D01*
X125397072Y-76169929D01*
X126442002Y-75125000D01*
X133805722Y-75125000D01*
X133735576Y-75256233D01*
X133735576Y-75256233D01*
G37*
X133735576Y-75256233D02*
X133679253Y-75441906D01*
X133660235Y-75635000D01*
X133679253Y-75828094D01*
X133735576Y-76013767D01*
X133827040Y-76184884D01*
X133896893Y-76270000D01*
X133827040Y-76355116D01*
X133735576Y-76526233D01*
X133679253Y-76711906D01*
X133660235Y-76905000D01*
X133679253Y-77098094D01*
X133735576Y-77283767D01*
X133827040Y-77454884D01*
X133896893Y-77540000D01*
X133827040Y-77625116D01*
X133735576Y-77796233D01*
X133679253Y-77981906D01*
X133660235Y-78175000D01*
X133679253Y-78368094D01*
X133735576Y-78553767D01*
X133805722Y-78685000D01*
X125397072Y-78685000D01*
X125397072Y-78483200D01*
X125394664Y-78458750D01*
X125394664Y-78434191D01*
X125382404Y-78309710D01*
X125363282Y-78213577D01*
X125326973Y-78093881D01*
X125289464Y-78003325D01*
X125230498Y-77893008D01*
X125176042Y-77811509D01*
X125096690Y-77714818D01*
X125027382Y-77645510D01*
X124930691Y-77566158D01*
X124849192Y-77511702D01*
X124795869Y-77483200D01*
X124849192Y-77454698D01*
X124930691Y-77400242D01*
X125027382Y-77320890D01*
X125096690Y-77251582D01*
X125176042Y-77154891D01*
X125230498Y-77073392D01*
X125289464Y-76963075D01*
X125326973Y-76872519D01*
X125363282Y-76752823D01*
X125382404Y-76656690D01*
X125394664Y-76532209D01*
X125394664Y-76507650D01*
X125397072Y-76483200D01*
X125397072Y-76169929D01*
X126442002Y-75125000D01*
X133805722Y-75125000D01*
X133735576Y-75256233D01*
G36*
X133735576Y-70176233D02*
G01*
X133679253Y-70361906D01*
X133660235Y-70555000D01*
X133679253Y-70748094D01*
X133735576Y-70933767D01*
X133827040Y-71104884D01*
X133896893Y-71190000D01*
X133827040Y-71275116D01*
X133735576Y-71446233D01*
X133679253Y-71631906D01*
X133660235Y-71825000D01*
X133679253Y-72018094D01*
X133735576Y-72203767D01*
X133827040Y-72374884D01*
X133896893Y-72460000D01*
X133827040Y-72545116D01*
X133735576Y-72716233D01*
X133679253Y-72901906D01*
X133660235Y-73095000D01*
X133679253Y-73288094D01*
X133735576Y-73473767D01*
X133805722Y-73605000D01*
X126164525Y-73605000D01*
X126127200Y-73601324D01*
X126089875Y-73605000D01*
X126089867Y-73605000D01*
X125978214Y-73615997D01*
X125834953Y-73659454D01*
X125702924Y-73730026D01*
X125587199Y-73824999D01*
X125563401Y-73853997D01*
X124536186Y-74881212D01*
X124528623Y-74878918D01*
X124432490Y-74859796D01*
X124308009Y-74847536D01*
X124283450Y-74847536D01*
X124259000Y-74845128D01*
X123759000Y-74845128D01*
X123634518Y-74857388D01*
X123609000Y-74865129D01*
X123583482Y-74857388D01*
X123459000Y-74845128D01*
X122959000Y-74845128D01*
X122934550Y-74847536D01*
X122909991Y-74847536D01*
X122785510Y-74859796D01*
X122689377Y-74878918D01*
X122569681Y-74915227D01*
X122479125Y-74952736D01*
X122368808Y-75011702D01*
X122287309Y-75066158D01*
X122190618Y-75145510D01*
X122121310Y-75214818D01*
X122041958Y-75311509D01*
X121987502Y-75393008D01*
X121944638Y-75473200D01*
X121231633Y-75473200D01*
X121194300Y-75469523D01*
X121156967Y-75473200D01*
X121045314Y-75484197D01*
X120938218Y-75516684D01*
X122327602Y-74127300D01*
X122804578Y-74127300D01*
X122841900Y-74130976D01*
X122879222Y-74127300D01*
X122879233Y-74127300D01*
X122990886Y-74116303D01*
X123134147Y-74072846D01*
X123266176Y-74002274D01*
X123381901Y-73907301D01*
X123405704Y-73878297D01*
X127239002Y-70045000D01*
X133805722Y-70045000D01*
X133735576Y-70176233D01*
X133735576Y-70176233D01*
G37*
X133735576Y-70176233D02*
X133679253Y-70361906D01*
X133660235Y-70555000D01*
X133679253Y-70748094D01*
X133735576Y-70933767D01*
X133827040Y-71104884D01*
X133896893Y-71190000D01*
X133827040Y-71275116D01*
X133735576Y-71446233D01*
X133679253Y-71631906D01*
X133660235Y-71825000D01*
X133679253Y-72018094D01*
X133735576Y-72203767D01*
X133827040Y-72374884D01*
X133896893Y-72460000D01*
X133827040Y-72545116D01*
X133735576Y-72716233D01*
X133679253Y-72901906D01*
X133660235Y-73095000D01*
X133679253Y-73288094D01*
X133735576Y-73473767D01*
X133805722Y-73605000D01*
X126164525Y-73605000D01*
X126127200Y-73601324D01*
X126089875Y-73605000D01*
X126089867Y-73605000D01*
X125978214Y-73615997D01*
X125834953Y-73659454D01*
X125702924Y-73730026D01*
X125587199Y-73824999D01*
X125563401Y-73853997D01*
X124536186Y-74881212D01*
X124528623Y-74878918D01*
X124432490Y-74859796D01*
X124308009Y-74847536D01*
X124283450Y-74847536D01*
X124259000Y-74845128D01*
X123759000Y-74845128D01*
X123634518Y-74857388D01*
X123609000Y-74865129D01*
X123583482Y-74857388D01*
X123459000Y-74845128D01*
X122959000Y-74845128D01*
X122934550Y-74847536D01*
X122909991Y-74847536D01*
X122785510Y-74859796D01*
X122689377Y-74878918D01*
X122569681Y-74915227D01*
X122479125Y-74952736D01*
X122368808Y-75011702D01*
X122287309Y-75066158D01*
X122190618Y-75145510D01*
X122121310Y-75214818D01*
X122041958Y-75311509D01*
X121987502Y-75393008D01*
X121944638Y-75473200D01*
X121231633Y-75473200D01*
X121194300Y-75469523D01*
X121156967Y-75473200D01*
X121045314Y-75484197D01*
X120938218Y-75516684D01*
X122327602Y-74127300D01*
X122804578Y-74127300D01*
X122841900Y-74130976D01*
X122879222Y-74127300D01*
X122879233Y-74127300D01*
X122990886Y-74116303D01*
X123134147Y-74072846D01*
X123266176Y-74002274D01*
X123381901Y-73907301D01*
X123405704Y-73878297D01*
X127239002Y-70045000D01*
X133805722Y-70045000D01*
X133735576Y-70176233D01*
M02*
